<svg width="152" height="153" viewBox="0 0 152 153" fill="none" xmlns="http://www.w3.org/2000/svg">
<path d="M98.844 46.916L80.8444 28.9158H116.844L113.722 32.0379H88.3988L101.06 44.6997L98.844 46.916ZM94.6236 2.66702L107.536 15.5794H81.7116L78.5896 18.7015H115.09L96.8398 0.450714L94.6236 2.66702Z" fill="#15C3FA"/>
<path d="M71.2856 39.3998H45.8279L71.2856 13.9412V18.3738L53.3823 36.2777H71.2856V39.3998ZM37.0015 11.0889H55.2709L37.0015 29.359V33.7723L62.8061 7.96683H37.0015V11.0889Z" fill="#15C3FA"/>
<path d="M46.4638 53.5842L28.4641 71.5845V35.584L31.5861 38.7061V64.0298L44.2476 51.3679L46.4638 53.5842ZM2.21623 57.8049L15.1282 44.8925V70.7172L18.2502 73.8393V37.3378L0 55.6078L2.21623 57.8049Z" fill="#15C3FA"/>
<path d="M38.9479 81.1435V106.602L13.4901 81.1435H17.9226L35.8259 99.0474V81.1435H38.9479ZM10.6379 115.448V97.178L28.9074 115.448H33.3206L7.51593 89.6233V115.448H10.6379Z" fill="#15C3FA"/>
<path d="M53.1318 105.966L71.1315 123.966H35.1321L38.2541 120.844H63.577L50.9156 108.182L53.1318 105.966ZM57.3523 150.234L44.4403 137.322H70.2643L73.3863 134.2H36.8859L55.1361 152.451L57.3523 150.234Z" fill="#15C3FA"/>
<path d="M80.6901 113.482H106.148L80.6901 138.941V134.508L98.5934 116.604H80.6901V113.482ZM114.994 141.793H96.7241L114.994 123.523V119.11L89.1696 144.915H114.994V141.793Z" fill="#15C3FA"/>
<path d="M105.512 99.298L123.512 81.2977V117.298L120.39 114.176V88.8524L107.728 101.514L105.512 99.298ZM149.779 95.0773L136.867 107.99V82.165L133.745 79.0428V115.544L151.995 97.2936L149.779 95.0773Z" fill="#15C3FA"/>
<path d="M113.028 71.7387V46.2801L138.486 71.7387H134.053L116.15 53.8348V71.7387H113.028ZM141.338 37.4534V55.7235L123.068 37.4534H118.655L144.46 63.2782V37.4534H141.338Z" fill="#15C3FA"/>
</svg>
