<svg width="463" height="153" viewBox="0 0 463 153" fill="none" xmlns="http://www.w3.org/2000/svg">
<path d="M237.599 17.5259C237.599 14.1532 239.989 11.7635 243.285 11.7635C246.58 11.7635 248.97 14.1532 248.97 17.5259C248.97 20.8214 246.58 23.2112 243.285 23.2112C239.989 23.2112 237.599 20.8214 237.599 17.5259ZM249.471 28.2027H237.041V66.2075H249.471V28.2027ZM227.405 16.967H215.476V46.6077L193.121 16.967H181.808V66.2075H193.814V36.7017L216.15 66.2075H227.405V16.967ZM259.781 116.045C259.781 127.782 251.494 135.491 238.987 135.491C226.48 135.491 218.27 127.763 218.27 116.045C218.27 104.386 226.48 96.6576 238.987 96.6576C251.494 96.6576 259.781 104.386 259.781 116.045ZM247.216 116.18C247.216 110.553 243.921 106.776 239.006 106.776C234.15 106.776 230.854 110.572 230.854 116.18C230.854 121.866 234.15 125.662 239.006 125.662C243.921 125.662 247.216 121.885 247.216 116.18ZM417.346 104.733V97.1394L384.044 97.0623V106.679H401.678L383.408 127.474V135.067H418.039V125.527H399.076L417.346 104.733ZM194.682 85.8459H181.828V135.086H215.534V124.121H194.682V85.8459ZM335.865 47.1666C335.865 58.9033 327.579 66.6315 315.071 66.6315C302.564 66.6315 294.354 58.9033 294.354 47.1666C294.354 35.5069 302.564 27.7787 315.071 27.7787C327.579 27.7787 335.865 35.5069 335.865 47.1666ZM323.281 47.3015C323.281 41.674 319.986 37.8966 315.052 37.8966C310.215 37.8966 306.9 41.6932 306.9 47.3015C306.9 52.9868 310.196 56.7834 315.052 56.7834C319.986 56.7834 323.281 53.006 323.281 47.3015ZM363.809 96.5998C358.259 96.5998 353.904 98.9125 351.244 103.268V97.0816H338.737V135.086H351.244V114.985C351.745 110.707 354.482 107.816 358.683 107.758C362.614 107.758 365.139 110.418 365.139 114.716V135.086H377.569V111.131C377.588 102.208 372.096 96.5998 363.809 96.5998ZM278.687 103.403V97.0816H266.179V135.086H278.687V115.699C279.322 110.437 283.948 107.334 290.905 108.048V96.5998C285.566 96.5998 281.288 99.0474 278.687 103.403ZM332.281 119.418H305.879C307.074 123.697 310.234 126.086 314.512 126.086C317.75 126.086 320.911 124.757 323.435 122.232L329.968 128.765C326.114 133.121 320.409 135.51 313.395 135.51C300.964 135.51 293.314 127.859 293.314 116.257C293.314 104.463 301.254 96.6576 313.125 96.6576C326.384 96.6576 333.129 105.581 332.281 119.418ZM320.198 112.75C320.198 108.394 317.384 105.446 313.183 105.446C309.116 105.446 306.438 108.394 305.59 112.75H320.198ZM463 116.045C463 127.782 454.713 135.491 442.206 135.491C429.699 135.491 421.489 127.763 421.489 116.045C421.489 104.386 429.699 96.6576 442.206 96.6576C454.713 96.6576 463 104.386 463 116.045ZM450.435 116.18C450.435 110.553 447.139 106.776 442.225 106.776C437.369 106.776 434.073 110.572 434.073 116.18C434.073 121.866 437.369 125.662 442.225 125.662C447.12 125.662 450.435 121.885 450.435 116.18ZM276.085 56.5136C271.595 56.5136 268.492 52.8519 268.492 47.3207C268.492 41.8474 271.575 38.1086 276.085 38.1086C279.322 38.1086 281.847 39.5926 283.524 42.0401L292.581 36.7788C289.286 31.0935 283.235 27.7787 275.584 27.7787C263.79 27.7787 255.907 35.584 255.907 47.3785C255.907 58.9612 263.712 66.6315 275.43 66.6315C283.504 66.6315 289.691 63.3359 292.716 57.4965L283.504 52.2351C281.982 55.1838 279.38 56.5136 276.085 56.5136Z" fill="white"/>
<path d="M98.844 46.916L80.8444 28.9158H116.844L113.722 32.0379H88.3988L101.06 44.6997L98.844 46.916ZM94.6236 2.66702L107.536 15.5794H81.7116L78.5896 18.7015H115.09L96.8398 0.450714L94.6236 2.66702Z" fill="#15C3FA"/>
<path d="M71.2856 39.3998H45.8279L71.2856 13.9412V18.3738L53.3823 36.2777H71.2856V39.3998ZM37.0015 11.0889H55.2709L37.0015 29.359V33.7723L62.8061 7.96683H37.0015V11.0889Z" fill="#15C3FA"/>
<path d="M46.4638 53.5842L28.4641 71.5845V35.584L31.5861 38.7061V64.0298L44.2476 51.3679L46.4638 53.5842ZM2.21623 57.8049L15.1282 44.8925V70.7172L18.2502 73.8393V37.3378L0 55.6078L2.21623 57.8049Z" fill="#15C3FA"/>
<path d="M38.9479 81.1435V106.602L13.4901 81.1435H17.9226L35.8259 99.0474V81.1435H38.9479ZM10.6379 115.448V97.178L28.9074 115.448H33.3206L7.51593 89.6233V115.448H10.6379Z" fill="#15C3FA"/>
<path d="M53.1318 105.966L71.1315 123.966H35.1321L38.2541 120.844H63.577L50.9156 108.182L53.1318 105.966ZM57.3523 150.234L44.4403 137.322H70.2643L73.3863 134.2H36.8859L55.1361 152.451L57.3523 150.234Z" fill="#15C3FA"/>
<path d="M80.6901 113.482H106.148L80.6901 138.941V134.508L98.5934 116.604H80.6901V113.482ZM114.994 141.793H96.7241L114.994 123.523V119.11L89.1696 144.915H114.994V141.793Z" fill="#15C3FA"/>
<path d="M105.512 99.298L123.512 81.2977V117.298L120.39 114.176V88.8524L107.728 101.514L105.512 99.298ZM149.779 95.0773L136.867 107.99V82.165L133.745 79.0428V115.544L151.995 97.2936L149.779 95.0773Z" fill="#15C3FA"/>
<path d="M113.028 71.7387V46.2801L138.486 71.7387H134.053L116.15 53.8348V71.7387H113.028ZM141.338 37.4534V55.7235L123.068 37.4534H118.655L144.46 63.2782V37.4534H141.338Z" fill="#15C3FA"/>
</svg>
