<svg width="1129" height="1027" viewBox="0 0 1129 1027" fill="none" xmlns="http://www.w3.org/2000/svg">
<path d="M1131.24 4.81427H1105.87L1131.24 -20.5562V-16.1389L1113.4 1.70298H1131.24V4.81427ZM1097.07 -23.3986H1115.28L1097.07 -5.19178V-0.793728L1122.81 -26.5099H1097.07V-23.3986Z" fill="#3E3E41"/>
<path d="M1106.52 18.9495L1088.59 36.8874V1.01156L1091.7 4.12285V29.3588L1104.31 16.7408L1106.52 18.9495ZM1062.41 23.1555L1075.28 10.2878V36.0231L1078.39 39.1344V2.75926L1060.2 20.9468L1062.41 23.1555Z" fill="#3E3E41"/>
<path d="M1099.03 46.4133V71.7837L1073.66 46.4133H1078.08L1095.92 64.2552V46.4133H1099.03ZM1070.82 80.599V62.3923L1089.03 80.599H1093.43L1067.71 54.8637V80.599H1070.82Z" fill="#3E3E41"/>
<path d="M1113.17 71.15L1131.11 89.0879H1095.23L1098.34 85.9766H1123.58L1110.96 73.3586L1113.17 71.15ZM1117.37 115.265L1104.51 102.397H1130.24L1133.35 99.286H1096.98L1115.17 117.474L1117.37 115.265Z" fill="#3E3E41"/>
<path d="M1131.24 156.288H1105.87L1131.24 130.917V135.335L1113.4 153.177H1131.24V156.288ZM1097.07 128.075H1115.28L1097.07 146.282V150.68L1122.81 124.964H1097.07V128.075Z" fill="#3E3E41"/>
<path d="M1106.52 170.404L1088.59 188.342V152.466L1091.7 155.577V180.813L1104.31 168.195L1106.52 170.404ZM1062.41 174.61L1075.28 161.742V187.478L1078.39 190.589V154.214L1060.2 172.401L1062.41 174.61Z" fill="#3E3E41"/>
<path d="M1099.03 197.887V223.257L1073.66 197.887H1078.08L1095.92 215.729V197.887H1099.03V197.887ZM1070.82 232.053V213.847L1089.03 232.053H1093.43L1067.71 206.318V232.053H1070.82Z" fill="#3E3E41"/>
<path d="M1113.17 222.604L1131.11 240.542H1095.23L1098.34 237.431H1123.58L1110.96 224.813L1113.17 222.604ZM1117.37 266.719L1104.51 253.852H1130.24L1133.35 250.74H1096.98L1115.17 268.928L1117.37 266.719Z" fill="#3E3E41"/>
<path d="M1131.24 307.742H1105.87L1131.24 282.372V286.789L1113.4 304.631H1131.24V307.742ZM1097.07 279.529H1115.28L1097.07 297.736V302.134L1122.81 276.418H1097.07V279.529Z" fill="#3E3E41"/>
<path d="M1106.52 321.858L1088.59 339.796V303.92L1091.7 307.032V332.268L1104.31 319.65L1106.52 321.858ZM1062.41 326.083L1075.28 313.216V338.951L1078.39 342.062V305.687L1060.2 323.875L1062.41 326.083Z" fill="#3E3E41"/>
<path d="M1099.03 349.341V374.712L1073.66 349.341H1078.08L1095.92 367.183V349.341H1099.03ZM1070.82 383.508V365.301L1089.03 383.508H1093.43L1067.71 357.772V383.508H1070.82Z" fill="#3E3E41"/>
<path d="M1113.17 374.059L1131.11 391.997H1095.23L1098.34 388.885H1123.58L1110.96 376.267L1113.17 374.059ZM1117.37 418.174L1104.51 405.306H1130.24L1133.35 402.195H1096.98L1115.17 420.382L1117.37 418.174Z" fill="#3E3E41"/>
<path d="M1131.24 459.197H1105.87L1131.24 433.826V438.244L1113.4 456.085H1131.24V459.197ZM1097.07 430.984H1115.28L1097.07 449.191V453.589L1122.81 427.873H1097.07V430.984Z" fill="#3E3E41"/>
<path d="M1106.52 473.332L1088.59 491.27V455.394L1091.7 458.505V483.741L1104.31 471.123L1106.52 473.332ZM1062.41 477.538L1075.28 464.67V490.405L1078.39 493.517V457.142L1060.2 475.329L1062.41 477.538Z" fill="#3E3E41"/>
<path d="M1099.03 500.796V526.166L1073.66 500.796H1078.08L1095.92 518.638V500.796H1099.03ZM1070.82 534.962V516.756L1089.03 534.962H1093.43L1067.71 509.227V534.962H1070.82Z" fill="#3E3E41"/>
<path d="M1113.17 525.513L1131.11 543.451H1095.23L1098.34 540.34H1123.58L1110.96 527.722L1113.17 525.513ZM1117.37 569.628L1104.51 556.76H1130.24L1133.35 553.649H1096.98L1115.17 571.837L1117.37 569.628Z" fill="#3E3E41"/>
<path d="M1131.24 610.651H1105.87L1131.24 585.281V589.698L1113.4 607.54H1131.24V610.651ZM1097.07 582.438H1115.28L1097.07 600.645V605.043L1122.81 579.327H1097.07V582.438Z" fill="#3E3E41"/>
<path d="M1106.52 624.786L1088.59 642.724V606.848L1091.7 609.959V635.196L1104.31 622.577L1106.52 624.786ZM1062.41 628.992L1075.28 616.124V641.86L1078.39 644.971V608.596L1060.2 626.783L1062.41 628.992Z" fill="#3E3E41"/>
<path d="M1099.03 652.25V677.621L1073.66 652.25H1078.08L1095.92 670.092V652.25H1099.03ZM1070.82 686.417V668.21L1089.03 686.417H1093.43L1067.71 660.681V686.417H1070.82Z" fill="#3E3E41"/>
<path d="M1113.17 676.987L1131.11 694.925H1095.23L1098.34 691.813H1123.58L1110.96 679.195L1113.17 676.987ZM1117.37 721.082L1104.51 708.215H1130.24L1133.35 705.103H1096.98L1115.17 723.291L1117.37 721.082Z" fill="#3E3E41"/>
<path d="M1131.24 762.125H1105.87L1131.24 736.754V741.172L1113.4 759.014H1131.24V762.125ZM1097.07 733.893H1115.28L1097.07 752.1V756.498L1122.81 730.781H1097.07V733.893Z" fill="#3E3E41"/>
<path d="M1106.52 776.241L1088.59 794.179V758.303L1091.7 761.414V786.65L1104.31 774.032L1106.52 776.241ZM1062.41 780.447L1075.28 767.579V793.315L1078.39 796.426V760.051L1060.2 778.238L1062.41 780.447Z" fill="#3E3E41"/>
<path d="M1099.03 803.724V829.094L1073.66 803.724H1078.08L1095.92 821.566V803.724H1099.03ZM1070.82 837.89V819.684L1089.03 837.89H1093.43L1067.71 812.155V837.89H1070.82Z" fill="#3E3E41"/>
<path d="M1113.17 828.441L1131.11 846.379H1095.23L1098.34 843.268H1123.58L1110.96 830.65L1113.17 828.441ZM1117.37 872.556L1104.51 859.689H1130.24L1133.35 856.577H1096.98L1115.17 874.765L1117.37 872.556Z" fill="#3E3E41"/>
<path d="M1131.24 913.579H1105.87L1131.24 888.209V892.626L1113.4 910.468H1131.24V913.579ZM1097.07 885.366H1115.28L1097.07 903.573V907.971L1122.81 882.255H1097.07V885.366Z" fill="#3E3E41"/>
<path d="M1106.52 927.695L1088.59 945.633V909.757L1091.7 912.869V938.105L1104.31 925.487L1106.52 927.695ZM1062.41 931.921L1075.28 919.053V944.788L1078.39 947.899V911.524L1060.2 929.712L1062.41 931.921Z" fill="#3E3E41"/>
<path d="M1099.03 955.178V980.549L1073.66 955.178H1078.08L1095.92 973.02V955.178H1099.03ZM1070.82 989.345V971.138L1089.03 989.345H1093.43L1067.71 963.61V989.345H1070.82Z" fill="#3E3E41"/>
<path d="M1113.17 979.896L1131.11 997.834H1095.23L1098.34 994.722H1123.58L1110.96 982.104L1113.17 979.896ZM1117.37 1024.01L1104.51 1011.14H1130.24L1133.35 1008.03H1096.98L1115.17 1026.22L1117.37 1024.01Z" fill="#3E3E41"/>
<path d="M1007.27 12.3044L989.332 -5.63351H1025.21L1022.1 -2.52223H996.861L1009.48 10.0958L1007.27 12.3044ZM1003.05 -31.7914L1015.91 -18.9237H990.177L987.066 -15.8124H1023.44L1005.25 -34L1003.05 -31.7914Z" fill="#3E3E41"/>
<path d="M979.787 4.81427H954.417L979.787 -20.5562V-16.1389L961.945 1.70298H979.787V4.81427ZM945.621 -23.3986H963.827L945.621 -5.19178V-0.793728L971.356 -26.5099H945.621V-23.3986Z" fill="#3E3E41"/>
<path d="M955.069 18.9495L937.132 36.8874V1.01156L940.243 4.12285V29.3588L952.861 16.7408L955.069 18.9495ZM910.954 23.1555L923.822 10.2878V36.0231L926.933 39.1344V2.75926L908.746 20.9468L910.954 23.1555Z" fill="#3E3E41"/>
<path d="M947.58 46.4133V71.7837L922.209 46.4133H926.626L944.468 64.2552V46.4133H947.58ZM919.367 80.599V62.3923L937.573 80.599H941.972L916.255 54.8637V80.599H919.367Z" fill="#3E3E41"/>
<path d="M961.696 71.15L979.634 89.0879H943.758L946.869 85.9766H972.105L959.487 73.3586L961.696 71.15ZM965.921 115.265L953.053 102.397H978.789L981.9 99.286H945.525L963.712 117.474L965.921 115.265Z" fill="#3E3E41"/>
<path d="M989.178 78.6401H1014.55L989.178 104.011V99.5933L1007.02 81.7514H989.178V78.6401ZM1023.35 106.853H1005.14L1023.35 88.6461V84.2481L997.61 109.964H1023.35V106.853Z" fill="#3E3E41"/>
<path d="M1013.9 64.5049L1031.83 46.567V82.4428L1028.72 79.3315V54.0955L1016.1 66.7135L1013.9 64.5049ZM1058.01 60.2989L1045.14 73.1665V47.4312L1042.03 44.3199V80.6951L1060.22 62.5075L1058.01 60.2989Z" fill="#3E3E41"/>
<path d="M1021.39 37.041V11.6706L1046.76 37.041H1042.34L1024.5 19.1992V37.041H1021.39ZM1049.6 2.8745V21.0813L1031.39 2.8745H1026.99L1052.71 28.6098V2.8745H1049.6Z" fill="#3E3E41"/>
<path d="M1007.27 163.778L989.332 145.84H1025.21L1022.1 148.951H996.861L1009.48 161.569L1007.27 163.778ZM1003.05 119.663L1015.91 132.531H990.177L987.066 135.642H1023.44L1005.25 117.454L1003.05 119.663Z" fill="#3E3E41"/>
<path d="M979.787 156.288H954.417L979.787 130.917V135.335L961.945 153.177H979.787V156.288ZM945.621 128.075H963.827L945.621 146.282V150.68L971.356 124.964H945.621V128.075Z" fill="#3E3E41"/>
<path d="M955.069 170.404L937.132 188.342V152.466L940.243 155.577V180.813L952.861 168.195L955.069 170.404ZM910.954 174.61L923.822 161.742V187.478L926.933 190.589V154.214L908.746 172.401L910.954 174.61Z" fill="#3E3E41"/>
<path d="M947.58 197.887V223.257L922.209 197.887H926.626L944.468 215.729V197.887H947.58V197.887ZM919.367 232.053V213.847L937.573 232.053H941.972L916.255 206.318V232.053H919.367Z" fill="#3E3E41"/>
<path d="M961.696 222.604L979.634 240.542H943.758L946.869 237.431H972.105L959.487 224.813L961.696 222.604ZM965.921 266.719L953.053 253.852H978.789L981.9 250.74H945.525L963.712 268.928L965.921 266.719Z" fill="#3E3E41"/>
<path d="M989.178 230.095H1014.55L989.178 255.465V251.048L1007.02 233.206H989.178V230.095ZM1023.35 258.307H1005.14L1023.35 240.101V235.703L997.61 261.419H1023.35V258.307Z" fill="#3E3E41"/>
<path d="M1013.9 215.959L1031.83 198.021V233.897L1028.72 230.786V205.55L1016.1 218.168L1013.9 215.959ZM1058.01 211.753L1045.14 224.621V198.886L1042.03 195.774V232.15L1060.22 213.962L1058.01 211.753Z" fill="#3E3E41"/>
<path d="M1021.39 188.496V163.125L1046.76 188.496H1042.34L1024.5 170.654V188.496H1021.39ZM1049.6 154.329V172.536L1031.39 154.329H1026.99L1052.71 180.064V154.329H1049.6Z" fill="#3E3E41"/>
<path d="M1007.27 315.232L989.332 297.294H1025.21L1022.1 300.406H996.861L1009.48 313.024L1007.27 315.232ZM1003.05 271.117L1015.91 283.985H990.177L987.066 287.096H1023.44L1005.25 268.909L1003.05 271.117Z" fill="#3E3E41"/>
<path d="M979.787 307.742H954.417L979.787 282.372V286.789L961.945 304.631H979.787V307.742ZM945.621 279.529H963.827L945.621 297.736V302.134L971.356 276.418H945.621V279.529Z" fill="#3E3E41"/>
<path d="M955.069 321.858L937.132 339.796V303.92L940.243 307.032V332.268L952.861 319.65L955.069 321.858ZM910.954 326.083L923.822 313.216V338.951L926.933 342.062V305.687L908.746 323.875L910.954 326.083Z" fill="#3E3E41"/>
<path d="M947.58 349.341V374.712L922.209 349.341H926.626L944.468 367.183V349.341H947.58ZM919.367 383.508V365.301L937.573 383.508H941.972L916.255 357.772V383.508H919.367Z" fill="#3E3E41"/>
<path d="M961.696 374.059L979.634 391.997H943.758L946.869 388.885H972.105L959.487 376.267L961.696 374.059ZM965.921 418.174L953.053 405.306H978.789L981.9 402.195H945.525L963.712 420.382L965.921 418.174Z" fill="#3E3E41"/>
<path d="M989.178 381.549H1014.55L989.178 406.919V402.502L1007.02 384.66H989.178V381.549ZM1023.35 409.762H1005.14L1023.35 391.555V387.157L997.61 412.873H1023.35V409.762Z" fill="#3E3E41"/>
<path d="M1013.9 367.433L1031.83 349.495V385.371L1028.72 382.259V357.023L1016.1 369.641L1013.9 367.433ZM1058.01 363.208L1045.14 376.075V350.34L1042.03 347.229V383.604L1060.22 365.416L1058.01 363.208Z" fill="#3E3E41"/>
<path d="M1021.39 339.95V314.579L1046.76 339.95H1042.34L1024.5 322.108V339.95H1021.39ZM1049.6 305.783V323.99L1031.39 305.783H1026.99L1052.71 331.518V305.783H1049.6Z" fill="#3E3E41"/>
<path d="M1007.27 466.687L989.332 448.749H1025.21L1022.1 451.86H996.861L1009.48 464.478L1007.27 466.687ZM1003.05 422.572L1015.91 435.439H990.177L987.066 438.551H1023.44L1005.25 420.363L1003.05 422.572Z" fill="#3E3E41"/>
<path d="M979.787 459.197H954.417L979.787 433.826V438.244L961.945 456.085H979.787V459.197ZM945.621 430.984H963.827L945.621 449.191V453.589L971.356 427.873H945.621V430.984Z" fill="#3E3E41"/>
<path d="M955.069 473.332L937.132 491.27V455.394L940.243 458.505V483.741L952.861 471.123L955.069 473.332ZM910.954 477.538L923.822 464.67V490.405L926.933 493.517V457.142L908.746 475.329L910.954 477.538Z" fill="#3E3E41"/>
<path d="M947.58 500.796V526.166L922.209 500.796H926.626L944.468 518.638V500.796H947.58ZM919.367 534.962V516.756L937.573 534.962H941.972L916.255 509.227V534.962H919.367Z" fill="#3E3E41"/>
<path d="M961.696 525.513L979.634 543.451H943.758L946.869 540.34H972.105L959.487 527.722L961.696 525.513ZM965.921 569.628L953.053 556.76H978.789L981.9 553.649H945.525L963.712 571.837L965.921 569.628Z" fill="#3E3E41"/>
<path d="M989.178 533.022H1014.55L989.178 558.393V553.976L1007.02 536.134H989.178V533.022ZM1023.35 561.235H1005.14L1023.35 543.029V538.63L997.61 564.347H1023.35V561.235Z" fill="#3E3E41"/>
<path d="M1013.9 518.887L1031.83 500.949V536.825L1028.72 533.714V508.478L1016.1 521.096L1013.9 518.887ZM1058.01 514.681L1045.14 527.549V501.814L1042.03 498.702V535.077L1060.22 516.89L1058.01 514.681Z" fill="#3E3E41"/>
<path d="M1021.39 491.423V466.053L1046.76 491.423H1042.34L1024.5 473.582V491.423H1021.39ZM1049.6 457.238V475.445L1031.39 457.238H1026.99L1052.71 482.973V457.238H1049.6Z" fill="#3E3E41"/>
<path d="M1007.27 618.141L989.332 600.203H1025.21L1022.1 603.314H996.861L1009.48 615.932L1007.27 618.141ZM1003.05 574.045L1015.91 586.913H990.177L987.066 590.024H1023.44L1005.25 571.837L1003.05 574.045Z" fill="#3E3E41"/>
<path d="M979.787 610.651H954.417L979.787 585.281V589.698L961.945 607.54H979.787V610.651ZM945.621 582.438H963.827L945.621 600.645V605.043L971.356 579.327H945.621V582.438Z" fill="#3E3E41"/>
<path d="M955.069 624.786L937.132 642.724V606.848L940.243 609.959V635.196L952.861 622.577L955.069 624.786ZM910.954 628.992L923.822 616.124V641.86L926.933 644.971V608.596L908.746 626.783L910.954 628.992Z" fill="#3E3E41"/>
<path d="M947.58 652.25V677.621L922.209 652.25H926.626L944.468 670.092V652.25H947.58ZM919.367 686.417V668.21L937.573 686.417H941.972L916.255 660.681V686.417H919.367Z" fill="#3E3E41"/>
<path d="M961.696 676.987L979.634 694.925H943.758L946.869 691.813H972.105L959.487 679.195L961.696 676.987ZM965.921 721.082L953.053 708.215H978.789L981.9 705.103H945.525L963.712 723.291L965.921 721.082Z" fill="#3E3E41"/>
<path d="M989.178 684.477H1014.55L989.178 709.847V705.43L1007.02 687.588H989.178V684.477ZM1023.35 712.69H1005.14L1023.35 694.483V690.085L997.61 715.801H1023.35V712.69Z" fill="#3E3E41"/>
<path d="M1013.9 670.342L1031.83 652.404V688.279L1028.72 685.168V659.932L1016.1 672.55L1013.9 670.342ZM1058.01 666.136L1045.14 679.003V653.268L1042.03 650.157V686.532L1060.22 668.344L1058.01 666.136Z" fill="#3E3E41"/>
<path d="M1021.39 642.878V617.507L1046.76 642.878H1042.34L1024.5 625.036V642.878H1021.39ZM1049.6 608.711V626.918L1031.39 608.711H1026.99L1052.71 634.447V608.711H1049.6Z" fill="#3E3E41"/>
<path d="M1007.27 769.615L989.332 751.677H1025.21L1022.1 754.788H996.861L1009.48 767.406L1007.27 769.615ZM1003.05 725.5L1015.91 738.368H990.177L987.066 741.479H1023.44L1005.25 723.291L1003.05 725.5Z" fill="#3E3E41"/>
<path d="M979.787 762.125H954.417L979.787 736.754V741.172L961.945 759.014H979.787V762.125ZM945.621 733.893H963.827L945.621 752.1V756.498L971.356 730.781H945.621V733.893Z" fill="#3E3E41"/>
<path d="M955.069 776.241L937.132 794.179V758.303L940.243 761.414V786.65L952.861 774.032L955.069 776.241ZM910.954 780.447L923.822 767.579V793.315L926.933 796.426V760.051L908.746 778.238L910.954 780.447Z" fill="#3E3E41"/>
<path d="M947.58 803.724V829.094L922.209 803.724H926.626L944.468 821.566V803.724H947.58ZM919.367 837.89V819.684L937.573 837.89H941.972L916.255 812.155V837.89H919.367Z" fill="#3E3E41"/>
<path d="M961.696 828.441L979.634 846.379H943.758L946.869 843.268H972.105L959.487 830.65L961.696 828.441ZM965.921 872.556L953.053 859.689H978.789L981.9 856.577H945.525L963.712 874.765L965.921 872.556Z" fill="#3E3E41"/>
<path d="M989.178 835.931H1014.55L989.178 861.302V856.885L1007.02 839.043H989.178V835.931ZM1023.35 864.144H1005.14L1023.35 845.937V841.539L997.61 867.256H1023.35V864.144Z" fill="#3E3E41"/>
<path d="M1013.9 821.796L1031.83 803.858V839.734L1028.72 836.623V811.387L1016.1 824.005L1013.9 821.796ZM1058.01 817.59L1045.14 830.458V804.723L1042.03 801.611V837.987L1060.22 819.799L1058.01 817.59Z" fill="#3E3E41"/>
<path d="M1021.39 794.332V768.962L1046.76 794.332H1042.34L1024.5 776.491V794.332H1021.39ZM1049.6 760.166V778.373L1031.39 760.166H1026.99L1052.71 785.901V760.166H1049.6Z" fill="#3E3E41"/>
<path d="M1007.27 921.069L989.332 903.132H1025.21L1022.1 906.243H996.861L1009.48 918.861L1007.27 921.069ZM1003.05 876.954L1015.91 889.822H990.177L987.066 892.933H1023.44L1005.25 874.746L1003.05 876.954Z" fill="#3E3E41"/>
<path d="M979.787 913.579H954.417L979.787 888.209V892.626L961.945 910.468H979.787V913.579ZM945.621 885.366H963.827L945.621 903.573V907.971L971.356 882.255H945.621V885.366Z" fill="#3E3E41"/>
<path d="M955.069 927.695L937.132 945.633V909.757L940.243 912.869V938.105L952.861 925.487L955.069 927.695ZM910.954 931.921L923.822 919.053V944.788L926.933 947.899V911.524L908.746 929.712L910.954 931.921Z" fill="#3E3E41"/>
<path d="M947.58 955.178V980.549L922.209 955.178H926.626L944.468 973.02V955.178H947.58ZM919.367 989.345V971.138L937.573 989.345H941.972L916.255 963.61V989.345H919.367Z" fill="#3E3E41"/>
<path d="M961.696 979.896L979.634 997.834H943.758L946.869 994.722H972.105L959.487 982.104L961.696 979.896ZM965.921 1024.01L953.053 1011.14H978.789L981.9 1008.03H945.525L963.712 1026.22L965.921 1024.01Z" fill="#3E3E41"/>
<path d="M989.178 987.386H1014.55L989.178 1012.76V1008.34L1007.02 990.497H989.178V987.386ZM1023.35 1015.6H1005.14L1023.35 997.392V992.994L997.61 1018.71H1023.35V1015.6Z" fill="#3E3E41"/>
<path d="M1013.9 973.27L1031.83 955.332V991.208L1028.72 988.097V962.861L1016.1 975.479L1013.9 973.27ZM1058.01 969.045L1045.14 981.912V956.177L1042.03 953.066V989.441L1060.22 971.253L1058.01 969.045Z" fill="#3E3E41"/>
<path d="M1021.39 945.787V920.417L1046.76 945.787H1042.34L1024.5 927.945V945.787H1021.39ZM1049.6 911.62V929.827L1031.39 911.62H1026.99L1052.71 937.356V911.62H1049.6Z" fill="#3E3E41"/>
<path d="M855.797 12.3044L837.859 -5.63351H873.734L870.623 -2.52223H845.387L858.005 10.0958L855.797 12.3044ZM851.591 -31.7914L864.458 -18.9237H838.723L835.612 -15.8124H871.987L853.799 -34L851.591 -31.7914Z" fill="#3E3E41"/>
<path d="M828.333 4.81427H802.962L828.333 -20.5562V-16.1389L810.491 1.70298H828.333V4.81427ZM794.166 -23.3986H812.373L794.166 -5.19178V-0.793728L819.882 -26.5099H794.147V-23.3986H794.166Z" fill="#3E3E41"/>
<path d="M803.615 18.9495L785.677 36.8874V1.01156L788.789 4.12285V29.3588L801.407 16.7408L803.615 18.9495ZM759.5 23.1555L772.368 10.2878V36.0231L775.479 39.1344V2.75926L757.292 20.9468L759.5 23.1555Z" fill="#3E3E41"/>
<path d="M796.125 46.4133V71.7837L770.755 46.4133H775.172L793.014 64.2552V46.4133H796.125ZM767.893 80.599V62.3923L786.1 80.599H790.498L764.782 54.8637V80.599H767.893Z" fill="#3E3E41"/>
<path d="M810.241 71.15L828.179 89.0879H792.303L795.415 85.9766H820.65L808.033 73.3586L810.241 71.15ZM814.447 115.265L801.579 102.397H827.315L830.426 99.286H794.051L812.239 117.474L814.447 115.265Z" fill="#3E3E41"/>
<path d="M837.724 78.6401H863.095L837.724 104.011V99.5933L855.566 81.7514H837.724V78.6401ZM871.891 106.853H853.684L871.891 88.6461V84.2481L846.155 109.964H871.891V106.853Z" fill="#3E3E41"/>
<path d="M862.442 64.5049L880.38 46.567V82.4428L877.268 79.3315V54.0955L864.65 66.7135L862.442 64.5049ZM906.557 60.2989L893.689 73.1665V47.4312L890.578 44.3199V80.6951L908.765 62.5075L906.557 60.2989Z" fill="#3E3E41"/>
<path d="M869.932 37.041V11.6706L895.302 37.041H890.885L873.043 19.1992V37.041H869.932ZM898.145 2.8745V21.0813L879.938 2.8745H875.54L901.256 28.6098V2.8745H898.145Z" fill="#3E3E41"/>
<path d="M855.797 163.778L837.859 145.84H873.735L870.623 148.951H845.387L858.005 161.569L855.797 163.778ZM851.591 119.663L864.458 132.531H838.723L835.612 135.642H871.987L853.799 117.454L851.591 119.663Z" fill="#3E3E41"/>
<path d="M828.333 156.288H802.962L828.333 130.917V135.335L810.491 153.177H828.333V156.288ZM794.166 128.075H812.373L794.166 146.282V150.68L819.902 124.964H794.166V128.075Z" fill="#3E3E41"/>
<path d="M803.615 170.404L785.677 188.342V152.466L788.789 155.577V180.813L801.407 168.195L803.615 170.404ZM759.5 174.61L772.368 161.742V187.478L775.479 190.589V154.214L757.292 172.401L759.5 174.61Z" fill="#3E3E41"/>
<path d="M796.125 197.887V223.257L770.755 197.887H775.172L793.014 215.729V197.887H796.125V197.887ZM767.893 232.053V213.847L786.1 232.053H790.498L764.782 206.318V232.053H767.893Z" fill="#3E3E41"/>
<path d="M810.241 222.604L828.179 240.542H792.303L795.415 237.431H820.651L808.033 224.813L810.241 222.604ZM814.447 266.719L801.58 253.852H827.315L830.426 250.74H794.051L812.239 268.928L814.447 266.719Z" fill="#3E3E41"/>
<path d="M837.724 230.095H863.095L837.724 255.465V251.048L855.566 233.206H837.724V230.095ZM871.891 258.307H853.684L871.891 240.101V235.703L846.155 261.419H871.891V258.307Z" fill="#3E3E41"/>
<path d="M862.442 215.959L880.38 198.021V233.897L877.268 230.786V205.55L864.65 218.168L862.442 215.959ZM906.557 211.753L893.689 224.621V198.886L890.578 195.774V232.15L908.765 213.962L906.557 211.753Z" fill="#3E3E41"/>
<path d="M869.932 188.496V163.125L895.302 188.496H890.885L873.043 170.654V188.496H869.932ZM898.145 154.329V172.536L879.938 154.329H875.54L901.256 180.064V154.329H898.145Z" fill="#3E3E41"/>
<path d="M855.797 315.232L837.859 297.294H873.735L870.623 300.406H845.387L858.005 313.024L855.797 315.232ZM851.591 271.117L864.458 283.985H838.723L835.612 287.096H871.987L853.799 268.909L851.591 271.117Z" fill="#3E3E41"/>
<path d="M828.333 307.742H802.962L828.333 282.372V286.789L810.491 304.631H828.333V307.742ZM794.166 279.529H812.373L794.166 297.736V302.134L819.902 276.418H794.166V279.529Z" fill="#3E3E41"/>
<path d="M803.615 321.858L785.677 339.796V303.92L788.789 307.032V332.268L801.407 319.65L803.615 321.858ZM759.5 326.083L772.368 313.216V338.951L775.479 342.062V305.687L757.292 323.875L759.5 326.083Z" fill="#3E3E41"/>
<path d="M796.125 349.341V374.712L770.755 349.341H775.172L793.014 367.183V349.341H796.125ZM767.893 383.508V365.301L786.1 383.508H790.498L764.782 357.772V383.508H767.893Z" fill="#3E3E41"/>
<path d="M810.241 374.059L828.179 391.997H792.303L795.415 388.885H820.651L808.033 376.267L810.241 374.059ZM814.447 418.174L801.58 405.306H827.315L830.426 402.195H794.051L812.239 420.382L814.447 418.174Z" fill="#3E3E41"/>
<path d="M837.724 381.549H863.095L837.724 406.919V402.502L855.566 384.66H837.724V381.549ZM871.891 409.762H853.684L871.891 391.555V387.157L846.155 412.873H871.891V409.762Z" fill="#3E3E41"/>
<path d="M862.442 367.433L880.38 349.495V385.371L877.268 382.259V357.023L864.65 369.641L862.442 367.433ZM906.557 363.208L893.689 376.075V350.34L890.578 347.229V383.604L908.765 365.416L906.557 363.208Z" fill="#3E3E41"/>
<path d="M869.932 339.95V314.579L895.302 339.95H890.885L873.043 322.108V339.95H869.932ZM898.145 305.783V323.99L879.938 305.783H875.54L901.256 331.518V305.783H898.145Z" fill="#3E3E41"/>
<path d="M855.797 466.687L837.859 448.749H873.735L870.623 451.86H845.387L858.005 464.478L855.797 466.687ZM851.591 422.572L864.458 435.439H838.723L835.612 438.551H871.987L853.799 420.363L851.591 422.572Z" fill="#3E3E41"/>
<path d="M828.333 459.197H802.962L828.333 433.826V438.244L810.491 456.085H828.333V459.197ZM794.166 430.984H812.373L794.166 449.191V453.589L819.902 427.873H794.166V430.984Z" fill="#3E3E41"/>
<path d="M803.615 473.332L785.677 491.27V455.394L788.789 458.505V483.741L801.407 471.123L803.615 473.332ZM759.5 477.538L772.368 464.67V490.405L775.479 493.517V457.142L757.292 475.329L759.5 477.538Z" fill="#3E3E41"/>
<path d="M796.125 500.796V526.166L770.755 500.796H775.172L793.014 518.638V500.796H796.125ZM767.893 534.962V516.756L786.1 534.962H790.498L764.782 509.227V534.962H767.893Z" fill="#3E3E41"/>
<path d="M810.241 525.513L828.179 543.451H792.303L795.415 540.34H820.651L808.033 527.722L810.241 525.513ZM814.447 569.628L801.58 556.76H827.315L830.426 553.649H794.051L812.239 571.837L814.447 569.628Z" fill="#3E3E41"/>
<path d="M837.724 533.022H863.095L837.724 558.393V553.976L855.566 536.134H837.724V533.022ZM871.891 561.235H853.684L871.891 543.029V538.63L846.155 564.347H871.891V561.235Z" fill="#3E3E41"/>
<path d="M862.442 518.887L880.38 500.949V536.825L877.268 533.714V508.478L864.65 521.096L862.442 518.887ZM906.557 514.681L893.689 527.549V501.814L890.578 498.702V535.077L908.765 516.89L906.557 514.681Z" fill="#3E3E41"/>
<path d="M869.932 491.423V466.053L895.302 491.423H890.885L873.043 473.582V491.423H869.932ZM898.145 457.238V475.445L879.938 457.238H875.54L901.256 482.973V457.238H898.145Z" fill="#3E3E41"/>
<path d="M855.797 618.141L837.859 600.203H873.735L870.623 603.314H845.387L858.005 615.932L855.797 618.141ZM851.591 574.045L864.458 586.913H838.723L835.612 590.024H871.987L853.799 571.837L851.591 574.045Z" fill="#3E3E41"/>
<path d="M828.333 610.651H802.962L828.333 585.281V589.698L810.491 607.54H828.333V610.651ZM794.166 582.438H812.373L794.166 600.645V605.043L819.902 579.327H794.166V582.438Z" fill="#3E3E41"/>
<path d="M803.615 624.786L785.677 642.724V606.848L788.789 609.959V635.196L801.407 622.577L803.615 624.786ZM759.5 628.992L772.368 616.124V641.86L775.479 644.971V608.596L757.292 626.783L759.5 628.992Z" fill="#3E3E41"/>
<path d="M796.125 652.25V677.621L770.755 652.25H775.172L793.014 670.092V652.25H796.125ZM767.893 686.417V668.21L786.1 686.417H790.498L764.782 660.681V686.417H767.893Z" fill="#3E3E41"/>
<path d="M810.241 676.987L828.179 694.925H792.303L795.415 691.813H820.651L808.033 679.195L810.241 676.987ZM814.447 721.082L801.58 708.215H827.315L830.426 705.103H794.051L812.239 723.291L814.447 721.082Z" fill="#3E3E41"/>
<path d="M837.724 684.477H863.095L837.724 709.847V705.43L855.566 687.588H837.724V684.477ZM871.891 712.69H853.684L871.891 694.483V690.085L846.155 715.801H871.891V712.69Z" fill="#3E3E41"/>
<path d="M862.442 670.342L880.38 652.404V688.279L877.268 685.168V659.932L864.65 672.55L862.442 670.342ZM906.557 666.136L893.689 679.003V653.268L890.578 650.157V686.532L908.765 668.344L906.557 666.136Z" fill="#3E3E41"/>
<path d="M869.932 642.878V617.507L895.302 642.878H890.885L873.043 625.036V642.878H869.932ZM898.145 608.711V626.918L879.938 608.711H875.54L901.256 634.447V608.711H898.145Z" fill="#3E3E41"/>
<path d="M855.797 769.615L837.859 751.677H873.735L870.623 754.788H845.387L858.005 767.406L855.797 769.615ZM851.591 725.5L864.458 738.368H838.723L835.612 741.479H871.987L853.799 723.291L851.591 725.5Z" fill="#3E3E41"/>
<path d="M828.333 762.125H802.962L828.333 736.754V741.172L810.491 759.014H828.333V762.125ZM794.166 733.893H812.373L794.166 752.1V756.498L819.902 730.781H794.166V733.893Z" fill="#3E3E41"/>
<path d="M803.615 776.241L785.677 794.179V758.303L788.789 761.414V786.65L801.407 774.032L803.615 776.241ZM759.5 780.447L772.368 767.579V793.315L775.479 796.426V760.051L757.292 778.238L759.5 780.447Z" fill="#3E3E41"/>
<path d="M796.125 803.724V829.094L770.755 803.724H775.172L793.014 821.566V803.724H796.125ZM767.893 837.89V819.684L786.1 837.89H790.498L764.782 812.155V837.89H767.893Z" fill="#3E3E41"/>
<path d="M810.241 828.441L828.179 846.379H792.303L795.415 843.268H820.651L808.033 830.65L810.241 828.441ZM814.447 872.556L801.58 859.689H827.315L830.426 856.577H794.051L812.239 874.765L814.447 872.556Z" fill="#3E3E41"/>
<path d="M837.724 835.931H863.095L837.724 861.302V856.885L855.566 839.043H837.724V835.931ZM871.891 864.144H853.684L871.891 845.937V841.539L846.155 867.256H871.891V864.144Z" fill="#3E3E41"/>
<path d="M862.442 821.796L880.38 803.858V839.734L877.268 836.623V811.387L864.65 824.005L862.442 821.796ZM906.557 817.59L893.689 830.458V804.723L890.578 801.611V837.987L908.765 819.799L906.557 817.59Z" fill="#3E3E41"/>
<path d="M869.932 794.332V768.962L895.302 794.332H890.885L873.043 776.491V794.332H869.932ZM898.145 760.166V778.373L879.938 760.166H875.54L901.256 785.901V760.166H898.145Z" fill="#3E3E41"/>
<path d="M855.797 921.069L837.859 903.132H873.735L870.623 906.243H845.387L858.005 918.861L855.797 921.069ZM851.591 876.954L864.458 889.822H838.723L835.612 892.933H871.987L853.799 874.746L851.591 876.954Z" fill="#3E3E41"/>
<path d="M828.333 913.579H802.962L828.333 888.209V892.626L810.491 910.468H828.333V913.579ZM794.166 885.366H812.373L794.166 903.573V907.971L819.902 882.255H794.166V885.366Z" fill="#3E3E41"/>
<path d="M803.615 927.695L785.677 945.633V909.757L788.789 912.869V938.105L801.407 925.487L803.615 927.695ZM759.5 931.921L772.368 919.053V944.788L775.479 947.899V911.524L757.292 929.712L759.5 931.921Z" fill="#3E3E41"/>
<path d="M796.125 955.178V980.549L770.755 955.178H775.172L793.014 973.02V955.178H796.125ZM767.893 989.345V971.138L786.1 989.345H790.498L764.782 963.61V989.345H767.893Z" fill="#3E3E41"/>
<path d="M810.241 979.896L828.179 997.834H792.303L795.415 994.722H820.651L808.033 982.104L810.241 979.896ZM814.447 1024.01L801.58 1011.14H827.315L830.426 1008.03H794.051L812.239 1026.22L814.447 1024.01Z" fill="#3E3E41"/>
<path d="M837.724 987.386H863.095L837.724 1012.76V1008.34L855.566 990.497H837.724V987.386ZM871.891 1015.6H853.684L871.891 997.392V992.994L846.155 1018.71H871.891V1015.6Z" fill="#3E3E41"/>
<path d="M862.442 973.27L880.38 955.332V991.208L877.268 988.097V962.861L864.65 975.479L862.442 973.27ZM906.557 969.045L893.689 981.912V956.177L890.578 953.066V989.441L908.765 971.253L906.557 969.045Z" fill="#3E3E41"/>
<path d="M869.932 945.787V920.417L895.302 945.787H890.885L873.043 927.945V945.787H869.932ZM898.145 911.62V929.827L879.938 911.62H875.54L901.256 937.356V911.62H898.145Z" fill="#3E3E41"/>
<path d="M704.342 12.3044L686.404 -5.63351H722.28L719.169 -2.52223H693.933L706.551 10.0958L704.342 12.3044ZM700.136 -31.7914L713.004 -18.9237H687.269L684.157 -15.8124H720.532L702.345 -34L700.136 -31.7914Z" fill="#3E3E41"/>
<path d="M676.878 4.81427H651.508L676.878 -20.5562V-16.1389L659.036 1.70298H676.878V4.81427ZM642.712 -23.3986H660.919L642.712 -5.19178V-0.793728L668.447 -26.5099H642.712V-23.3986Z" fill="#3E3E41"/>
<path d="M652.142 18.9495L634.204 36.8874V1.01156L637.315 4.12285V29.3588L649.933 16.7408L652.142 18.9495ZM608.046 23.1555L620.913 10.2878V36.0231L624.025 39.1344V2.75926L605.837 20.9468L608.046 23.1555Z" fill="#3E3E41"/>
<path d="M644.651 46.4133V71.7837L619.281 46.4133H623.698L641.54 64.2552V46.4133H644.651ZM616.438 80.599V62.3923L634.645 80.599H639.043L613.327 54.8637V80.599H616.438Z" fill="#3E3E41"/>
<path d="M658.787 71.15L676.725 89.0879H640.849L643.96 85.9766H669.196L656.578 73.3586L658.787 71.15ZM662.993 115.265L650.125 102.397H675.86L678.972 99.286H642.597L660.784 117.474L662.993 115.265Z" fill="#3E3E41"/>
<path d="M686.25 78.6401H711.621L686.25 104.011V99.5933L704.092 81.7514H686.25V78.6401ZM720.417 106.853H702.21L720.417 88.6461V84.2481L694.681 109.964H720.417V106.853Z" fill="#3E3E41"/>
<path d="M710.987 64.5049L728.925 46.567V82.4428L725.814 79.3315V54.0955L713.196 66.7135L710.987 64.5049ZM755.083 60.2989L742.215 73.1665V47.4312L739.104 44.3199V80.6951L757.291 62.5075L755.083 60.2989Z" fill="#3E3E41"/>
<path d="M718.477 37.041V11.6706L743.848 37.041H739.431L721.589 19.1992V37.041H718.477ZM746.69 2.8745V21.0813L728.483 2.8745H724.085L749.802 28.6098V2.8745H746.69Z" fill="#3E3E41"/>
<path d="M704.342 163.778L686.404 145.84H722.28L719.169 148.951H693.933L706.551 161.569L704.342 163.778ZM700.136 119.663L713.004 132.531H687.269L684.157 135.642H720.532L702.345 117.454L700.136 119.663Z" fill="#3E3E41"/>
<path d="M676.878 156.288H651.508L676.878 130.917V135.335L659.036 153.177H676.878V156.288ZM642.712 128.075H660.919L642.712 146.282V150.68L668.447 124.964H642.712V128.075Z" fill="#3E3E41"/>
<path d="M652.142 170.404L634.204 188.342V152.466L637.315 155.577V180.813L649.933 168.195L652.142 170.404ZM608.046 174.61L620.913 161.742V187.478L624.025 190.589V154.214L605.837 172.401L608.046 174.61Z" fill="#3E3E41"/>
<path d="M644.651 197.887V223.257L619.281 197.887H623.698L641.54 215.729V197.887H644.651V197.887ZM616.438 232.053V213.847L634.645 232.053H639.043L613.327 206.318V232.053H616.438Z" fill="#3E3E41"/>
<path d="M658.787 222.604L676.725 240.542H640.849L643.96 237.431H669.196L656.578 224.813L658.787 222.604ZM662.993 266.719L650.125 253.852H675.86L678.972 250.74H642.597L660.784 268.928L662.993 266.719Z" fill="#3E3E41"/>
<path d="M686.25 230.095H711.621L686.25 255.465V251.048L704.092 233.206H686.25V230.095ZM720.417 258.307H702.21L720.417 240.101V235.703L694.681 261.419H720.417V258.307Z" fill="#3E3E41"/>
<path d="M710.987 215.959L728.925 198.021V233.897L725.814 230.786V205.55L713.196 218.168L710.987 215.959ZM755.083 211.753L742.215 224.621V198.886L739.104 195.774V232.15L757.291 213.962L755.083 211.753Z" fill="#3E3E41"/>
<path d="M718.477 188.496V163.125L743.848 188.496H739.431L721.589 170.654V188.496H718.477ZM746.69 154.329V172.536L728.483 154.329H724.085L749.802 180.064V154.329H746.69Z" fill="#3E3E41"/>
<path d="M704.342 315.232L686.404 297.294H722.28L719.169 300.406H693.933L706.551 313.024L704.342 315.232ZM700.136 271.117L713.004 283.985H687.269L684.157 287.096H720.532L702.345 268.909L700.136 271.117Z" fill="#3E3E41"/>
<path d="M676.878 307.742H651.508L676.878 282.372V286.789L659.036 304.631H676.878V307.742ZM642.712 279.529H660.919L642.712 297.736V302.134L668.447 276.418H642.712V279.529Z" fill="#3E3E41"/>
<path d="M652.142 321.858L634.204 339.796V303.92L637.315 307.032V332.268L649.933 319.65L652.142 321.858ZM608.046 326.083L620.913 313.216V338.951L624.025 342.062V305.687L605.837 323.875L608.046 326.083Z" fill="#3E3E41"/>
<path d="M644.651 349.341V374.712L619.281 349.341H623.698L641.54 367.183V349.341H644.651ZM616.438 383.508V365.301L634.645 383.508H639.043L613.327 357.772V383.508H616.438Z" fill="#3E3E41"/>
<path d="M658.787 374.059L676.725 391.997H640.849L643.96 388.885H669.196L656.578 376.267L658.787 374.059ZM662.993 418.174L650.125 405.306H675.86L678.972 402.195H642.597L660.784 420.382L662.993 418.174Z" fill="#3E3E41"/>
<path d="M686.25 381.549H711.621L686.25 406.919V402.502L704.092 384.66H686.25V381.549ZM720.417 409.762H702.21L720.417 391.555V387.157L694.681 412.873H720.417V409.762Z" fill="#3E3E41"/>
<path d="M710.987 367.433L728.925 349.495V385.371L725.814 382.259V357.023L713.196 369.641L710.987 367.433ZM755.083 363.208L742.215 376.075V350.34L739.104 347.229V383.604L757.291 365.416L755.083 363.208Z" fill="#3E3E41"/>
<path d="M718.477 339.95V314.579L743.848 339.95H739.431L721.589 322.108V339.95H718.477ZM746.69 305.783V323.99L728.483 305.783H724.085L749.802 331.518V305.783H746.69Z" fill="#3E3E41"/>
<path d="M704.342 466.687L686.404 448.749H722.28L719.169 451.86H693.933L706.551 464.478L704.342 466.687ZM700.136 422.572L713.004 435.439H687.269L684.157 438.551H720.532L702.345 420.363L700.136 422.572Z" fill="#3E3E41"/>
<path d="M676.878 459.197H651.508L676.878 433.826V438.244L659.036 456.085H676.878V459.197ZM642.712 430.984H660.919L642.712 449.191V453.589L668.447 427.873H642.712V430.984Z" fill="#3E3E41"/>
<path d="M652.142 473.332L634.204 491.27V455.394L637.315 458.505V483.741L649.933 471.123L652.142 473.332ZM608.046 477.538L620.913 464.67V490.405L624.025 493.517V457.142L605.837 475.329L608.046 477.538Z" fill="#3E3E41"/>
<path d="M644.651 500.796V526.166L619.281 500.796H623.698L641.54 518.638V500.796H644.651ZM616.438 534.962V516.756L634.645 534.962H639.043L613.327 509.227V534.962H616.438Z" fill="#3E3E41"/>
<path d="M658.787 525.513L676.725 543.451H640.849L643.96 540.34H669.196L656.578 527.722L658.787 525.513ZM662.993 569.628L650.125 556.76H675.86L678.972 553.649H642.597L660.784 571.837L662.993 569.628Z" fill="#3E3E41"/>
<path d="M686.25 533.022H711.621L686.25 558.393V553.976L704.092 536.134H686.25V533.022ZM720.417 561.235H702.21L720.417 543.029V538.63L694.681 564.347H720.417V561.235Z" fill="#3E3E41"/>
<path d="M710.987 518.887L728.925 500.949V536.825L725.814 533.714V508.478L713.196 521.096L710.987 518.887ZM755.083 514.681L742.215 527.549V501.814L739.104 498.702V535.077L757.291 516.89L755.083 514.681Z" fill="#3E3E41"/>
<path d="M718.477 491.423V466.053L743.848 491.423H739.431L721.589 473.582V491.423H718.477ZM746.69 457.238V475.445L728.483 457.238H724.085L749.802 482.973V457.238H746.69Z" fill="#3E3E41"/>
<path d="M704.342 618.141L686.404 600.203H722.28L719.169 603.314H693.933L706.551 615.932L704.342 618.141ZM700.136 574.045L713.004 586.913H687.269L684.157 590.024H720.532L702.345 571.837L700.136 574.045Z" fill="#3E3E41"/>
<path d="M676.878 610.651H651.508L676.878 585.281V589.698L659.036 607.54H676.878V610.651ZM642.712 582.438H660.919L642.712 600.645V605.043L668.447 579.327H642.712V582.438Z" fill="#3E3E41"/>
<path d="M652.142 624.786L634.204 642.724V606.848L637.315 609.959V635.196L649.933 622.577L652.142 624.786ZM608.046 628.992L620.913 616.124V641.86L624.025 644.971V608.596L605.837 626.783L608.046 628.992Z" fill="#3E3E41"/>
<path d="M644.651 652.25V677.621L619.281 652.25H623.698L641.54 670.092V652.25H644.651ZM616.438 686.417V668.21L634.645 686.417H639.043L613.327 660.681V686.417H616.438Z" fill="#3E3E41"/>
<path d="M658.787 676.987L676.725 694.925H640.849L643.96 691.813H669.196L656.578 679.195L658.787 676.987ZM662.993 721.082L650.125 708.215H675.86L678.972 705.103H642.597L660.784 723.291L662.993 721.082Z" fill="#3E3E41"/>
<path d="M686.25 684.477H711.621L686.25 709.847V705.43L704.092 687.588H686.25V684.477ZM720.417 712.69H702.21L720.417 694.483V690.085L694.681 715.801H720.417V712.69Z" fill="#3E3E41"/>
<path d="M710.987 670.342L728.925 652.404V688.279L725.814 685.168V659.932L713.196 672.55L710.987 670.342ZM755.083 666.136L742.215 679.003V653.268L739.104 650.157V686.532L757.291 668.344L755.083 666.136Z" fill="#3E3E41"/>
<path d="M718.477 642.878V617.507L743.848 642.878H739.431L721.589 625.036V642.878H718.477ZM746.69 608.711V626.918L728.483 608.711H724.085L749.802 634.447V608.711H746.69Z" fill="#3E3E41"/>
<path d="M704.342 769.615L686.404 751.677H722.28L719.169 754.788H693.933L706.551 767.406L704.342 769.615ZM700.136 725.5L713.004 738.368H687.269L684.157 741.479H720.532L702.345 723.291L700.136 725.5Z" fill="#3E3E41"/>
<path d="M676.878 762.125H651.508L676.878 736.754V741.172L659.036 759.014H676.878V762.125ZM642.712 733.893H660.919L642.712 752.1V756.498L668.447 730.781H642.712V733.893Z" fill="#3E3E41"/>
<path d="M652.142 776.241L634.204 794.179V758.303L637.315 761.414V786.65L649.933 774.032L652.142 776.241ZM608.046 780.447L620.913 767.579V793.315L624.025 796.426V760.051L605.837 778.238L608.046 780.447Z" fill="#3E3E41"/>
<path d="M644.651 803.724V829.094L619.281 803.724H623.698L641.54 821.566V803.724H644.651ZM616.438 837.89V819.684L634.645 837.89H639.043L613.327 812.155V837.89H616.438Z" fill="#3E3E41"/>
<path d="M658.787 828.441L676.725 846.379H640.849L643.96 843.268H669.196L656.578 830.65L658.787 828.441ZM662.993 872.556L650.125 859.689H675.86L678.972 856.577H642.597L660.784 874.765L662.993 872.556Z" fill="#3E3E41"/>
<path d="M686.25 835.931H711.621L686.25 861.302V856.885L704.092 839.043H686.25V835.931ZM720.417 864.144H702.21L720.417 845.937V841.539L694.681 867.256H720.417V864.144Z" fill="#3E3E41"/>
<path d="M710.987 821.796L728.925 803.858V839.734L725.814 836.623V811.387L713.196 824.005L710.987 821.796ZM755.083 817.59L742.215 830.458V804.723L739.104 801.611V837.987L757.291 819.799L755.083 817.59Z" fill="#3E3E41"/>
<path d="M718.477 794.332V768.962L743.848 794.332H739.431L721.589 776.491V794.332H718.477ZM746.69 760.166V778.373L728.483 760.166H724.085L749.802 785.901V760.166H746.69Z" fill="#3E3E41"/>
<path d="M704.342 921.069L686.404 903.132H722.28L719.169 906.243H693.933L706.551 918.861L704.342 921.069ZM700.136 876.954L713.004 889.822H687.269L684.157 892.933H720.532L702.345 874.746L700.136 876.954Z" fill="#3E3E41"/>
<path d="M676.878 913.579H651.508L676.878 888.209V892.626L659.036 910.468H676.878V913.579ZM642.712 885.366H660.919L642.712 903.573V907.971L668.447 882.255H642.712V885.366Z" fill="#3E3E41"/>
<path d="M652.142 927.695L634.204 945.633V909.757L637.315 912.869V938.105L649.933 925.487L652.142 927.695ZM608.046 931.921L620.913 919.053V944.788L624.025 947.899V911.524L605.837 929.712L608.046 931.921Z" fill="#3E3E41"/>
<path d="M644.651 955.178V980.549L619.281 955.178H623.698L641.54 973.02V955.178H644.651ZM616.438 989.345V971.138L634.645 989.345H639.043L613.327 963.61V989.345H616.438Z" fill="#3E3E41"/>
<path d="M658.787 979.896L676.725 997.834H640.849L643.96 994.722H669.196L656.578 982.104L658.787 979.896ZM662.993 1024.01L650.125 1011.14H675.86L678.972 1008.03H642.597L660.784 1026.22L662.993 1024.01Z" fill="#3E3E41"/>
<path d="M686.25 987.386H711.621L686.25 1012.76V1008.34L704.092 990.497H686.25V987.386ZM720.417 1015.6H702.21L720.417 997.392V992.994L694.681 1018.71H720.417V1015.6Z" fill="#3E3E41"/>
<path d="M710.987 973.27L728.925 955.332V991.208L725.814 988.097V962.861L713.196 975.479L710.987 973.27ZM755.083 969.045L742.215 981.912V956.177L739.104 953.066V989.441L757.291 971.253L755.083 969.045Z" fill="#3E3E41"/>
<path d="M718.477 945.787V920.417L743.848 945.787H739.431L721.589 927.945V945.787H718.477ZM746.69 911.62V929.827L728.483 911.62H724.085L749.802 937.356V911.62H746.69Z" fill="#3E3E41"/>
<path d="M552.888 12.3044L534.95 -5.63351H570.826L567.715 -2.52223H542.479L555.097 10.0958L552.888 12.3044ZM548.682 -31.7914L561.55 -18.9237H535.814L532.703 -15.8124H569.078L550.871 -34L548.682 -31.7914Z" fill="#3E3E41"/>
<path d="M525.424 4.81427H500.054L525.424 -20.5562V-16.1389L507.583 1.70298H525.424V4.81427ZM491.239 -23.3986H509.445L491.239 -5.19178V-0.793728L516.974 -26.5099H491.239V-23.3986Z" fill="#3E3E41"/>
<path d="M500.688 18.9495L482.75 36.8874V1.01156L485.861 4.12285V29.3588L498.479 16.7408L500.688 18.9495ZM456.573 23.1555L469.44 10.2878V36.0231L472.551 39.1344V2.75926L454.364 20.9468L456.573 23.1555Z" fill="#3E3E41"/>
<path d="M493.198 46.4133V71.7837L467.827 46.4133H472.244L490.086 64.2552V46.4133H493.198ZM464.985 80.599V62.3923L483.192 80.599H487.59L461.874 54.8637V80.599H464.985Z" fill="#3E3E41"/>
<path d="M507.332 71.15L525.27 89.0879H489.395L492.506 85.9766H517.742L505.124 73.3586L507.332 71.15ZM511.538 115.265L498.671 102.397H524.406L527.517 99.286H491.142L509.33 117.474L511.538 115.265Z" fill="#3E3E41"/>
<path d="M534.797 78.6401H560.167L534.797 104.011V99.5933L552.639 81.7514H534.797V78.6401ZM568.963 106.853H550.756L568.963 88.6461V84.2481L543.228 109.964H568.963V106.853Z" fill="#3E3E41"/>
<path d="M559.514 64.5049L577.452 46.567V82.4428L574.341 79.3315V54.0955L561.723 66.7135L559.514 64.5049ZM603.629 60.2989L590.761 73.1665V47.4312L587.65 44.3199V80.6951L605.838 62.5075L603.629 60.2989Z" fill="#3E3E41"/>
<path d="M567.023 37.041V11.6706L592.394 37.041H587.976L570.134 19.1992V37.041H567.023ZM595.236 2.8745V21.0813L577.029 2.8745H572.631L598.347 28.6098V2.8745H595.236Z" fill="#3E3E41"/>
<path d="M552.888 163.778L534.95 145.84H570.826L567.715 148.951H542.479L555.097 161.569L552.888 163.778ZM548.682 119.663L561.55 132.531H535.814L532.703 135.642H569.078L550.891 117.454L548.682 119.663Z" fill="#3E3E41"/>
<path d="M525.424 156.288H500.054L525.424 130.917V135.335L507.583 153.177H525.424V156.288ZM491.239 128.075H509.445L491.239 146.282V150.68L516.974 124.964H491.239V128.075Z" fill="#3E3E41"/>
<path d="M500.688 170.404L482.75 188.342V152.466L485.861 155.577V180.813L498.479 168.195L500.688 170.404ZM456.573 174.61L469.44 161.742V187.478L472.551 190.589V154.214L454.364 172.401L456.573 174.61Z" fill="#3E3E41"/>
<path d="M493.198 197.887V223.257L467.827 197.887H472.244L490.086 215.729V197.887H493.198V197.887ZM464.985 232.053V213.847L483.192 232.053H487.59L461.874 206.318V232.053H464.985Z" fill="#3E3E41"/>
<path d="M507.332 222.604L525.27 240.542H489.395L492.506 237.431H517.742L505.124 224.813L507.332 222.604ZM511.538 266.719L498.671 253.852H524.406L527.517 250.74H491.142L509.33 268.928L511.538 266.719Z" fill="#3E3E41"/>
<path d="M534.797 230.095H560.167L534.797 255.465V251.048L552.639 233.206H534.797V230.095ZM568.963 258.307H550.756L568.963 240.101V235.703L543.228 261.419H568.963V258.307Z" fill="#3E3E41"/>
<path d="M559.514 215.959L577.452 198.021V233.897L574.341 230.786V205.55L561.723 218.168L559.514 215.959ZM603.629 211.753L590.761 224.621V198.886L587.65 195.774V232.15L605.838 213.962L603.629 211.753Z" fill="#3E3E41"/>
<path d="M567.023 188.496V163.125L592.394 188.496H587.976L570.134 170.654V188.496H567.023ZM595.236 154.329V172.536L577.029 154.329H572.631L598.347 180.064V154.329H595.236Z" fill="#3E3E41"/>
<path d="M552.888 315.232L534.95 297.294H570.826L567.715 300.406H542.479L555.097 313.024L552.888 315.232ZM548.682 271.117L561.55 283.985H535.814L532.703 287.096H569.078L550.891 268.909L548.682 271.117Z" fill="#3E3E41"/>
<path d="M525.424 307.742H500.054L525.424 282.372V286.789L507.583 304.631H525.424V307.742ZM491.239 279.529H509.445L491.239 297.736V302.134L516.974 276.418H491.239V279.529Z" fill="#3E3E41"/>
<path d="M500.688 321.858L482.75 339.796V303.92L485.861 307.032V332.268L498.479 319.65L500.688 321.858ZM456.573 326.083L469.44 313.216V338.951L472.551 342.062V305.687L454.364 323.875L456.573 326.083Z" fill="#3E3E41"/>
<path d="M493.198 349.341V374.712L467.827 349.341H472.244L490.086 367.183V349.341H493.198ZM464.985 383.508V365.301L483.192 383.508H487.59L461.874 357.772V383.508H464.985Z" fill="#3E3E41"/>
<path d="M507.332 374.059L525.27 391.997H489.395L492.506 388.885H517.742L505.124 376.267L507.332 374.059ZM511.538 418.174L498.671 405.306H524.406L527.517 402.195H491.142L509.33 420.382L511.538 418.174Z" fill="#3E3E41"/>
<path d="M534.797 381.549H560.167L534.797 406.919V402.502L552.639 384.66H534.797V381.549ZM568.963 409.762H550.756L568.963 391.555V387.157L543.228 412.873H568.963V409.762Z" fill="#3E3E41"/>
<path d="M559.514 367.433L577.452 349.495V385.371L574.341 382.259V357.023L561.723 369.641L559.514 367.433ZM603.629 363.208L590.761 376.075V350.34L587.65 347.229V383.604L605.838 365.416L603.629 363.208Z" fill="#3E3E41"/>
<path d="M567.023 339.95V314.579L592.394 339.95H587.976L570.134 322.108V339.95H567.023ZM595.236 305.783V323.99L577.029 305.783H572.631L598.347 331.518V305.783H595.236Z" fill="#3E3E41"/>
<path d="M552.888 466.687L534.95 448.749H570.826L567.715 451.86H542.479L555.097 464.478L552.888 466.687ZM548.682 422.572L561.55 435.439H535.814L532.703 438.551H569.078L550.891 420.363L548.682 422.572Z" fill="#3E3E41"/>
<path d="M525.424 459.197H500.054L525.424 433.826V438.244L507.583 456.085H525.424V459.197ZM491.239 430.984H509.445L491.239 449.191V453.589L516.974 427.873H491.239V430.984Z" fill="#3E3E41"/>
<path d="M500.688 473.332L482.75 491.27V455.394L485.861 458.505V483.741L498.479 471.123L500.688 473.332ZM456.573 477.538L469.44 464.67V490.405L472.551 493.517V457.142L454.364 475.329L456.573 477.538Z" fill="#3E3E41"/>
<path d="M493.198 500.796V526.166L467.827 500.796H472.244L490.086 518.638V500.796H493.198ZM464.985 534.962V516.756L483.192 534.962H487.59L461.874 509.227V534.962H464.985Z" fill="#3E3E41"/>
<path d="M507.332 525.513L525.27 543.451H489.395L492.506 540.34H517.742L505.124 527.722L507.332 525.513ZM511.538 569.628L498.671 556.76H524.406L527.517 553.649H491.142L509.33 571.837L511.538 569.628Z" fill="#3E3E41"/>
<path d="M534.797 533.022H560.167L534.797 558.393V553.976L552.639 536.134H534.797V533.022ZM568.963 561.235H550.756L568.963 543.029V538.63L543.228 564.347H568.963V561.235Z" fill="#3E3E41"/>
<path d="M559.514 518.887L577.452 500.949V536.825L574.341 533.714V508.478L561.723 521.096L559.514 518.887ZM603.629 514.681L590.761 527.549V501.814L587.65 498.702V535.077L605.838 516.89L603.629 514.681Z" fill="#3E3E41"/>
<path d="M567.023 491.423V466.053L592.394 491.423H587.976L570.134 473.582V491.423H567.023ZM595.236 457.238V475.445L577.029 457.238H572.631L598.347 482.973V457.238H595.236Z" fill="#3E3E41"/>
<path d="M552.888 618.141L534.95 600.203H570.826L567.715 603.315H542.479L555.097 615.933L552.888 618.141ZM548.682 574.045L561.55 586.913H535.814L532.703 590.024H569.078L550.891 571.837L548.682 574.045Z" fill="#3E3E41"/>
<path d="M525.424 610.651H500.054L525.424 585.281V589.698L507.583 607.54H525.424V610.651ZM491.239 582.438H509.445L491.239 600.645V605.043L516.974 579.327H491.239V582.438Z" fill="#3E3E41"/>
<path d="M500.688 624.786L482.75 642.724V606.848L485.861 609.96V635.196L498.479 622.578L500.688 624.786ZM456.573 628.992L469.44 616.125V641.86L472.551 644.971V608.596L454.364 626.784L456.573 628.992Z" fill="#3E3E41"/>
<path d="M493.198 652.25V677.621L467.827 652.25H472.244L490.086 670.092V652.25H493.198ZM464.985 686.417V668.21L483.192 686.417H487.59L461.874 660.681V686.417H464.985Z" fill="#3E3E41"/>
<path d="M507.332 676.987L525.27 694.925H489.395L492.506 691.813H517.742L505.124 679.195L507.332 676.987ZM511.538 721.083L498.671 708.215H524.406L527.517 705.104H491.142L509.33 723.291L511.538 721.083Z" fill="#3E3E41"/>
<path d="M534.797 684.477H560.167L534.797 709.847V705.43L552.639 687.588H534.797V684.477ZM568.963 712.69H550.756L568.963 694.483V690.085L543.228 715.801H568.963V712.69Z" fill="#3E3E41"/>
<path d="M559.514 670.342L577.452 652.404V688.28L574.341 685.168V659.932L561.723 672.55L559.514 670.342ZM603.629 666.136L590.761 679.003V653.268L587.65 650.157V686.532L605.838 668.344L603.629 666.136Z" fill="#3E3E41"/>
<path d="M567.023 642.878V617.507L592.394 642.878H587.976L570.134 625.036V642.878H567.023ZM595.236 608.711V626.918L577.029 608.711H572.631L598.347 634.447V608.711H595.236Z" fill="#3E3E41"/>
<path d="M552.888 769.615L534.95 751.677H570.826L567.715 754.788H542.479L555.097 767.406L552.888 769.615ZM548.682 725.5L561.55 738.368H535.814L532.703 741.479H569.078L550.891 723.291L548.682 725.5Z" fill="#3E3E41"/>
<path d="M525.424 762.125H500.054L525.424 736.754V741.172L507.583 759.014H525.424V762.125ZM491.239 733.893H509.445L491.239 752.1V756.498L516.974 730.781H491.239V733.893Z" fill="#3E3E41"/>
<path d="M500.688 776.241L482.75 794.179V758.303L485.861 761.414V786.65L498.479 774.032L500.688 776.241ZM456.573 780.447L469.44 767.579V793.315L472.551 796.426V760.051L454.364 778.238L456.573 780.447Z" fill="#3E3E41"/>
<path d="M493.198 803.724V829.094L467.827 803.724H472.244L490.086 821.566V803.724H493.198ZM464.985 837.89V819.684L483.192 837.89H487.59L461.874 812.155V837.89H464.985Z" fill="#3E3E41"/>
<path d="M507.332 828.441L525.27 846.379H489.395L492.506 843.268H517.742L505.124 830.65L507.332 828.441ZM511.538 872.556L498.671 859.689H524.406L527.517 856.577H491.142L509.33 874.765L511.538 872.556Z" fill="#3E3E41"/>
<path d="M534.797 835.931H560.167L534.797 861.302V856.885L552.639 839.043H534.797V835.931ZM568.963 864.144H550.756L568.963 845.937V841.539L543.228 867.256H568.963V864.144Z" fill="#3E3E41"/>
<path d="M559.514 821.796L577.452 803.858V839.734L574.341 836.623V811.387L561.723 824.005L559.514 821.796ZM603.629 817.59L590.761 830.458V804.723L587.65 801.611V837.987L605.838 819.799L603.629 817.59Z" fill="#3E3E41"/>
<path d="M567.023 794.332V768.962L592.394 794.332H587.976L570.134 776.491V794.332H567.023ZM595.236 760.166V778.373L577.029 760.166H572.631L598.347 785.901V760.166H595.236Z" fill="#3E3E41"/>
<path d="M552.888 921.069L534.95 903.132H570.826L567.715 906.243H542.479L555.097 918.861L552.888 921.069ZM548.682 876.954L561.55 889.822H535.814L532.703 892.933H569.078L550.891 874.746L548.682 876.954Z" fill="#3E3E41"/>
<path d="M525.424 913.579H500.054L525.424 888.209V892.626L507.583 910.468H525.424V913.579ZM491.239 885.366H509.445L491.239 903.573V907.971L516.974 882.255H491.239V885.366Z" fill="#3E3E41"/>
<path d="M500.688 927.695L482.75 945.633V909.757L485.861 912.869V938.105L498.479 925.487L500.688 927.695ZM456.573 931.921L469.44 919.053V944.788L472.551 947.899V911.524L454.364 929.712L456.573 931.921Z" fill="#3E3E41"/>
<path d="M493.198 955.178V980.549L467.827 955.178H472.244L490.086 973.02V955.178H493.198ZM464.985 989.345V971.138L483.192 989.345H487.59L461.874 963.61V989.345H464.985Z" fill="#3E3E41"/>
<path d="M507.332 979.896L525.27 997.834H489.395L492.506 994.722H517.742L505.124 982.104L507.332 979.896ZM511.538 1024.01L498.671 1011.14H524.406L527.517 1008.03H491.142L509.33 1026.22L511.538 1024.01Z" fill="#3E3E41"/>
<path d="M534.797 987.386H560.167L534.797 1012.76V1008.34L552.639 990.497H534.797V987.386ZM568.963 1015.6H550.756L568.963 997.392V992.994L543.228 1018.71H568.963V1015.6Z" fill="#3E3E41"/>
<path d="M559.514 973.27L577.452 955.332V991.208L574.341 988.097V962.861L561.723 975.479L559.514 973.27ZM603.629 969.045L590.761 981.912V956.177L587.65 953.066V989.441L605.838 971.253L603.629 969.045Z" fill="#3E3E41"/>
<path d="M567.023 945.787V920.417L592.394 945.787H587.976L570.134 927.945V945.787H567.023ZM595.236 911.62V929.827L577.029 911.62H572.631L598.347 937.356V911.62H595.236Z" fill="#3E3E41"/>
<path d="M401.433 12.3044L383.495 -5.63351H419.371L416.26 -2.52223H391.024L403.642 10.0958L401.433 12.3044ZM397.208 -31.7914L410.075 -18.9237H384.34L381.229 -15.8124H417.604L399.416 -34L397.208 -31.7914Z" fill="#3E3E41"/>
<path d="M373.95 4.81427H348.58L373.95 -20.5562V-16.1389L356.108 1.70298H373.95V4.81427ZM339.784 -23.3986H357.99L339.784 -5.19178V-0.793728L365.519 -26.5099H339.784V-23.3986Z" fill="#3E3E41"/>
<path d="M349.233 18.9495L331.295 36.8874V1.01156L334.406 4.12285V29.3588L347.024 16.7408L349.233 18.9495ZM305.118 23.1555L317.985 10.2878V36.0231L321.097 39.1344V2.75926L302.909 20.9468L305.118 23.1555Z" fill="#3E3E41"/>
<path d="M341.742 46.4133V71.7837L316.372 46.4133H320.789L338.631 64.2552V46.4133H341.742ZM313.53 80.599V62.3923L331.736 80.599H336.134L310.418 54.8637V80.599H313.53Z" fill="#3E3E41"/>
<path d="M355.859 71.15L373.797 89.0879H337.921L341.032 85.9766H366.268L353.65 73.3586L355.859 71.15ZM360.084 115.265L347.216 102.397H372.952L376.063 99.286H339.688L357.875 117.474L360.084 115.265Z" fill="#3E3E41"/>
<path d="M383.342 78.6401H408.712L383.342 104.011V99.5933L401.183 81.7514H383.342V78.6401ZM417.508 106.853H399.301L417.508 88.6461V84.2481L391.773 109.964H417.508V106.853Z" fill="#3E3E41"/>
<path d="M408.059 64.5049L425.997 46.567V82.4428L422.886 79.3315V54.0955L410.268 66.7135L408.059 64.5049ZM452.174 60.2989L439.306 73.1665V47.4312L436.195 44.3199V80.6951L454.383 62.5075L452.174 60.2989Z" fill="#3E3E41"/>
<path d="M415.549 37.041V11.6706L440.919 37.041H436.502L418.679 19.1992V37.041H415.549V37.041ZM443.762 2.8745V21.0813L425.555 2.8745H421.157L446.873 28.6098V2.8745H443.762Z" fill="#3E3E41"/>
<path d="M401.433 163.778L383.495 145.84H419.371L416.26 148.951H391.024L403.642 161.569L401.433 163.778ZM397.208 119.663L410.076 132.531H384.34L381.229 135.642H417.604L399.416 117.454L397.208 119.663Z" fill="#3E3E41"/>
<path d="M373.95 156.288H348.58L373.95 130.917V135.335L356.108 153.177H373.95V156.288ZM339.784 128.075H357.99L339.784 146.282V150.68L365.519 124.964H339.784V128.075Z" fill="#3E3E41"/>
<path d="M349.233 170.404L331.295 188.342V152.466L334.406 155.577V180.813L347.024 168.195L349.233 170.404ZM305.118 174.61L317.985 161.742V187.478L321.097 190.589V154.214L302.909 172.401L305.118 174.61Z" fill="#3E3E41"/>
<path d="M341.743 197.887V223.257L316.372 197.887H320.789L338.631 215.729V197.887H341.743V197.887ZM313.53 232.053V213.847L331.737 232.053H336.135L310.418 206.318V232.053H313.53Z" fill="#3E3E41"/>
<path d="M355.859 222.604L373.797 240.542H337.921L341.032 237.431H366.268L353.65 224.813L355.859 222.604ZM360.084 266.719L347.216 253.852H372.952L376.063 250.74H339.688L357.875 268.928L360.084 266.719Z" fill="#3E3E41"/>
<path d="M383.342 230.095H408.712L383.342 255.465V251.048L401.183 233.206H383.342V230.095ZM417.508 258.307H399.301L417.508 240.101V235.703L391.773 261.419H417.508V258.307Z" fill="#3E3E41"/>
<path d="M408.059 215.959L425.997 198.021V233.897L422.886 230.786V205.55L410.268 218.168L408.059 215.959ZM452.174 211.753L439.306 224.621V198.886L436.195 195.774V232.15L454.383 213.962L452.174 211.753Z" fill="#3E3E41"/>
<path d="M415.549 188.496V163.125L440.92 188.496H436.502L418.66 170.654V188.496H415.549ZM443.762 154.329V172.536L425.555 154.329H421.157L446.873 180.064V154.329H443.762Z" fill="#3E3E41"/>
<path d="M401.433 315.232L383.495 297.294H419.371L416.26 300.406H391.024L403.642 313.024L401.433 315.232ZM397.208 271.117L410.076 283.985H384.34L381.229 287.096H417.604L399.416 268.909L397.208 271.117Z" fill="#3E3E41"/>
<path d="M373.95 307.742H348.58L373.95 282.372V286.789L356.108 304.631H373.95V307.742ZM339.784 279.529H357.99L339.784 297.736V302.134L365.519 276.418H339.784V279.529Z" fill="#3E3E41"/>
<path d="M349.233 321.858L331.295 339.796V303.92L334.406 307.032V332.268L347.024 319.65L349.233 321.858ZM305.118 326.083L317.985 313.216V338.951L321.097 342.062V305.687L302.909 323.875L305.118 326.083Z" fill="#3E3E41"/>
<path d="M341.743 349.341V374.712L316.372 349.341H320.789L338.631 367.183V349.341H341.743ZM313.53 383.508V365.301L331.737 383.508H336.135L310.418 357.772V383.508H313.53Z" fill="#3E3E41"/>
<path d="M355.859 374.059L373.797 391.997H337.921L341.032 388.885H366.268L353.65 376.267L355.859 374.059ZM360.084 418.174L347.216 405.306H372.952L376.063 402.195H339.688L357.875 420.382L360.084 418.174Z" fill="#3E3E41"/>
<path d="M383.342 381.549H408.712L383.342 406.919V402.502L401.183 384.66H383.342V381.549ZM417.508 409.762H399.301L417.508 391.555V387.157L391.773 412.873H417.508V409.762Z" fill="#3E3E41"/>
<path d="M408.059 367.433L425.997 349.495V385.371L422.886 382.259V357.023L410.268 369.641L408.059 367.433ZM452.174 363.208L439.306 376.075V350.34L436.195 347.229V383.604L454.383 365.416L452.174 363.208Z" fill="#3E3E41"/>
<path d="M415.549 339.95V314.579L440.92 339.95H436.502L418.66 322.108V339.95H415.549ZM443.762 305.783V323.99L425.555 305.783H421.157L446.873 331.518V305.783H443.762Z" fill="#3E3E41"/>
<path d="M401.433 466.687L383.495 448.749H419.371L416.26 451.86H391.024L403.642 464.478L401.433 466.687ZM397.208 422.572L410.076 435.439H384.34L381.229 438.551H417.604L399.416 420.363L397.208 422.572Z" fill="#3E3E41"/>
<path d="M373.95 459.197H348.58L373.95 433.826V438.244L356.108 456.085H373.95V459.197ZM339.784 430.984H357.99L339.784 449.191V453.589L365.519 427.873H339.784V430.984Z" fill="#3E3E41"/>
<path d="M349.233 473.332L331.295 491.27V455.394L334.406 458.505V483.741L347.024 471.123L349.233 473.332ZM305.118 477.538L317.985 464.67V490.405L321.097 493.517V457.142L302.909 475.329L305.118 477.538Z" fill="#3E3E41"/>
<path d="M341.743 500.796V526.166L316.372 500.796H320.789L338.631 518.638V500.796H341.743ZM313.53 534.962V516.756L331.737 534.962H336.135L310.418 509.227V534.962H313.53Z" fill="#3E3E41"/>
<path d="M355.859 525.513L373.797 543.451H337.921L341.032 540.34H366.268L353.65 527.722L355.859 525.513ZM360.084 569.628L347.216 556.76H372.952L376.063 553.649H339.688L357.875 571.837L360.084 569.628Z" fill="#3E3E41"/>
<path d="M383.342 533.022H408.712L383.342 558.393V553.976L401.183 536.134H383.342V533.022ZM417.508 561.235H399.301L417.508 543.029V538.63L391.773 564.347H417.508V561.235Z" fill="#3E3E41"/>
<path d="M408.059 518.887L425.997 500.949V536.825L422.886 533.714V508.478L410.268 521.096L408.059 518.887ZM452.174 514.681L439.306 527.549V501.814L436.195 498.702V535.077L454.383 516.89L452.174 514.681Z" fill="#3E3E41"/>
<path d="M415.549 491.423V466.053L440.92 491.423H436.502L418.66 473.582V491.423H415.549ZM443.762 457.238V475.445L425.555 457.238H421.157L446.873 482.973V457.238H443.762Z" fill="#3E3E41"/>
<path d="M401.433 618.141L383.495 600.203H419.371L416.26 603.314H391.024L403.642 615.932L401.433 618.141ZM397.208 574.045L410.076 586.913H384.34L381.229 590.024H417.604L399.416 571.837L397.208 574.045Z" fill="#3E3E41"/>
<path d="M373.95 610.651H348.58L373.95 585.281V589.698L356.108 607.54H373.95V610.651ZM339.784 582.438H357.99L339.784 600.645V605.043L365.519 579.327H339.784V582.438Z" fill="#3E3E41"/>
<path d="M349.233 624.786L331.295 642.724V606.848L334.406 609.959V635.196L347.024 622.577L349.233 624.786ZM305.118 628.992L317.985 616.124V641.86L321.097 644.971V608.596L302.909 626.783L305.118 628.992Z" fill="#3E3E41"/>
<path d="M341.743 652.25V677.621L316.372 652.25H320.789L338.631 670.092V652.25H341.743ZM313.53 686.417V668.21L331.737 686.417H336.135L310.418 660.681V686.417H313.53Z" fill="#3E3E41"/>
<path d="M355.859 676.987L373.797 694.925H337.921L341.032 691.813H366.268L353.65 679.195L355.859 676.987ZM360.084 721.082L347.216 708.215H372.952L376.063 705.103H339.688L357.875 723.291L360.084 721.082Z" fill="#3E3E41"/>
<path d="M383.342 684.477H408.712L383.342 709.847V705.43L401.183 687.588H383.342V684.477ZM417.508 712.69H399.301L417.508 694.483V690.085L391.773 715.801H417.508V712.69Z" fill="#3E3E41"/>
<path d="M408.059 670.342L425.997 652.404V688.279L422.886 685.168V659.932L410.268 672.55L408.059 670.342ZM452.174 666.136L439.306 679.003V653.268L436.195 650.157V686.532L454.383 668.344L452.174 666.136Z" fill="#3E3E41"/>
<path d="M415.549 642.878V617.507L440.92 642.878H436.502L418.66 625.036V642.878H415.549ZM443.762 608.711V626.918L425.555 608.711H421.157L446.873 634.447V608.711H443.762Z" fill="#3E3E41"/>
<path d="M401.433 769.615L383.495 751.677H419.371L416.26 754.788H391.024L403.642 767.406L401.433 769.615ZM397.208 725.5L410.076 738.368H384.34L381.229 741.479H417.604L399.416 723.291L397.208 725.5Z" fill="#3E3E41"/>
<path d="M373.95 762.125H348.58L373.95 736.754V741.172L356.108 759.014H373.95V762.125ZM339.784 733.893H357.99L339.784 752.1V756.498L365.519 730.781H339.784V733.893Z" fill="#3E3E41"/>
<path d="M349.233 776.241L331.295 794.179V758.303L334.406 761.414V786.65L347.024 774.032L349.233 776.241ZM305.118 780.447L317.985 767.579V793.315L321.097 796.426V760.051L302.909 778.238L305.118 780.447Z" fill="#3E3E41"/>
<path d="M341.743 803.724V829.094L316.372 803.724H320.789L338.631 821.566V803.724H341.743ZM313.53 837.89V819.684L331.737 837.89H336.135L310.418 812.155V837.89H313.53Z" fill="#3E3E41"/>
<path d="M355.859 828.441L373.797 846.379H337.921L341.032 843.268H366.268L353.65 830.65L355.859 828.441ZM360.084 872.556L347.216 859.689H372.952L376.063 856.577H339.688L357.875 874.765L360.084 872.556Z" fill="#3E3E41"/>
<path d="M383.342 835.931H408.712L383.342 861.302V856.885L401.183 839.043H383.342V835.931ZM417.508 864.144H399.301L417.508 845.937V841.539L391.773 867.256H417.508V864.144Z" fill="#3E3E41"/>
<path d="M408.059 821.796L425.997 803.858V839.734L422.886 836.623V811.387L410.268 824.005L408.059 821.796ZM452.174 817.59L439.306 830.458V804.723L436.195 801.611V837.987L454.383 819.799L452.174 817.59Z" fill="#3E3E41"/>
<path d="M415.549 794.332V768.962L440.92 794.332H436.502L418.66 776.491V794.332H415.549ZM443.762 760.166V778.373L425.555 760.166H421.157L446.873 785.901V760.166H443.762Z" fill="#3E3E41"/>
<path d="M401.433 921.069L383.495 903.132H419.371L416.26 906.243H391.024L403.642 918.861L401.433 921.069ZM397.208 876.954L410.076 889.822H384.34L381.229 892.933H417.604L399.416 874.746L397.208 876.954Z" fill="#3E3E41"/>
<path d="M373.95 913.579H348.58L373.95 888.209V892.626L356.108 910.468H373.95V913.579ZM339.784 885.366H357.99L339.784 903.573V907.971L365.519 882.255H339.784V885.366Z" fill="#3E3E41"/>
<path d="M349.233 927.695L331.295 945.633V909.757L334.406 912.869V938.105L347.024 925.487L349.233 927.695ZM305.118 931.921L317.985 919.053V944.788L321.097 947.899V911.524L302.909 929.712L305.118 931.921Z" fill="#3E3E41"/>
<path d="M341.743 955.178V980.549L316.372 955.178H320.789L338.631 973.02V955.178H341.743ZM313.53 989.345V971.138L331.737 989.345H336.135L310.418 963.61V989.345H313.53Z" fill="#3E3E41"/>
<path d="M355.859 979.896L373.797 997.834H337.921L341.032 994.722H366.268L353.65 982.104L355.859 979.896ZM360.084 1024.01L347.216 1011.14H372.952L376.063 1008.03H339.688L357.875 1026.22L360.084 1024.01Z" fill="#3E3E41"/>
<path d="M383.342 987.386H408.712L383.342 1012.76V1008.34L401.183 990.497H383.342V987.386ZM417.508 1015.6H399.301L417.508 997.392V992.994L391.773 1018.71H417.508V1015.6Z" fill="#3E3E41"/>
<path d="M408.059 973.27L425.997 955.332V991.208L422.886 988.097V962.861L410.268 975.479L408.059 973.27ZM452.174 969.045L439.306 981.912V956.177L436.195 953.066V989.441L454.383 971.253L452.174 969.045Z" fill="#3E3E41"/>
<path d="M415.549 945.787V920.417L440.92 945.787H436.502L418.66 927.945V945.787H415.549ZM443.762 911.62V929.827L425.555 911.62H421.157L446.873 937.356V911.62H443.762Z" fill="#3E3E41"/>
<path d="M249.959 12.3044L232.021 -5.63351H267.897L264.786 -2.52223H239.55L252.168 10.0958L249.959 12.3044ZM245.753 -31.7914L258.621 -18.9237H232.886L229.774 -15.8124H266.15L247.962 -34L245.753 -31.7914Z" fill="#3E3E41"/>
<path d="M222.496 4.81427H197.125L222.496 -20.5562V-16.1389L204.654 1.70298H222.496V4.81427ZM188.329 -23.3986H206.536L188.329 -5.19178V-0.793728L214.065 -26.5099H188.329V-23.3986Z" fill="#3E3E41"/>
<path d="M197.778 18.9495L179.84 36.8874V1.01156L182.951 4.12285V29.3588L195.569 16.7408L197.778 18.9495ZM153.663 23.1555L166.531 10.2878V36.0231L169.642 39.1344V2.75926L151.454 20.9468L153.663 23.1555Z" fill="#3E3E41"/>
<path d="M190.288 46.4133V71.7837L164.898 46.4133H169.316L187.158 64.2552V46.4133H190.288ZM162.075 80.599V62.3923L180.282 80.599H184.68L158.964 54.8637V80.599H162.075Z" fill="#3E3E41"/>
<path d="M204.404 71.15L222.342 89.0879H186.466L189.578 85.9766H214.814L202.196 73.3586L204.404 71.15ZM208.61 115.265L195.742 102.397H221.478L224.589 99.286H188.214L206.402 117.474L208.61 115.265Z" fill="#3E3E41"/>
<path d="M231.887 78.6401H257.258L231.887 104.011V99.5933L249.729 81.7514H231.887V78.6401V78.6401ZM266.054 106.853H247.847L266.054 88.6461V84.2481L240.318 109.964H266.054V106.853Z" fill="#3E3E41"/>
<path d="M256.605 64.5049L274.543 46.567V82.4428L271.431 79.3315V54.0955L258.813 66.7135L256.605 64.5049ZM300.72 60.2989L287.852 73.1665V47.4312L284.741 44.3199V80.6951L302.928 62.5075L300.72 60.2989Z" fill="#3E3E41"/>
<path d="M264.094 37.041V11.6706L289.465 37.041H285.048L267.206 19.1992V37.041H264.094ZM292.307 2.8745V21.0813L274.1 2.8745H269.702L295.419 28.6098V2.8745H292.307Z" fill="#3E3E41"/>
<path d="M249.959 163.778L232.021 145.84H267.897L264.786 148.951H239.55L252.168 161.569L249.959 163.778ZM245.753 119.663L258.621 132.531H232.886L229.774 135.642H266.15L247.962 117.454L245.753 119.663Z" fill="#3E3E41"/>
<path d="M222.495 156.288H197.125L222.495 130.917V135.335L204.653 153.177H222.495V156.288ZM188.329 128.075H206.536L188.329 146.282V150.68L214.064 124.964H188.329V128.075Z" fill="#3E3E41"/>
<path d="M197.778 170.404L179.84 188.342V152.466L182.951 155.577V180.813L195.569 168.195L197.778 170.404ZM153.663 174.61L166.531 161.742V187.478L169.642 190.589V154.214L151.454 172.401L153.663 174.61Z" fill="#3E3E41"/>
<path d="M190.288 197.887V223.257L164.918 197.887H169.335L187.177 215.729V197.887H190.288V197.887ZM162.075 232.053V213.847L180.282 232.053H184.68L158.964 206.318V232.053H162.075Z" fill="#3E3E41"/>
<path d="M204.404 222.604L222.342 240.542H186.466L189.577 237.431H214.813L202.195 224.813L204.404 222.604ZM208.61 266.719L195.742 253.852H221.477L224.589 250.74H188.214L206.401 268.928L208.61 266.719Z" fill="#3E3E41"/>
<path d="M231.887 230.095H257.258L231.887 255.465V251.048L249.729 233.206H231.887V230.095V230.095ZM266.054 258.307H247.847L266.054 240.101V235.703L240.318 261.419H266.054V258.307Z" fill="#3E3E41"/>
<path d="M256.605 215.959L274.543 198.021V233.897L271.431 230.786V205.55L258.813 218.168L256.605 215.959ZM300.72 211.753L287.852 224.621V198.886L284.741 195.774V232.15L302.928 213.962L300.72 211.753Z" fill="#3E3E41"/>
<path d="M264.094 188.496V163.125L289.465 188.496H285.048L267.206 170.654V188.496H264.094ZM292.307 154.329V172.536L274.1 154.329H269.702L295.419 180.064V154.329H292.307Z" fill="#3E3E41"/>
<path d="M249.959 315.232L232.021 297.294H267.897L264.786 300.406H239.55L252.168 313.024L249.959 315.232ZM245.753 271.117L258.621 283.985H232.886L229.774 287.096H266.15L247.962 268.909L245.753 271.117Z" fill="#3E3E41"/>
<path d="M222.495 307.742H197.125L222.495 282.372V286.789L204.653 304.631H222.495V307.742ZM188.329 279.529H206.536L188.329 297.736V302.134L214.064 276.418H188.329V279.529Z" fill="#3E3E41"/>
<path d="M197.778 321.858L179.84 339.796V303.92L182.951 307.032V332.268L195.569 319.65L197.778 321.858ZM153.663 326.083L166.531 313.216V338.951L169.642 342.062V305.687L151.454 323.875L153.663 326.083Z" fill="#3E3E41"/>
<path d="M190.288 349.341V374.712L164.898 349.341H169.316L187.158 367.183V349.341H190.288ZM162.075 383.508V365.301L180.282 383.508H184.68L158.964 357.772V383.508H162.075Z" fill="#3E3E41"/>
<path d="M204.404 374.059L222.342 391.997H186.466L189.577 388.885H214.813L202.195 376.267L204.404 374.059ZM208.61 418.174L195.742 405.306H221.477L224.589 402.195H188.214L206.401 420.382L208.61 418.174Z" fill="#3E3E41"/>
<path d="M231.887 381.549H257.258L231.887 406.919V402.502L249.729 384.66H231.887V381.549V381.549ZM266.054 409.762H247.847L266.054 391.555V387.157L240.318 412.873H266.054V409.762Z" fill="#3E3E41"/>
<path d="M256.605 367.433L274.543 349.495V385.371L271.431 382.259V357.023L258.813 369.641L256.605 367.433ZM300.72 363.208L287.852 376.075V350.34L284.741 347.229V383.604L302.928 365.416L300.72 363.208Z" fill="#3E3E41"/>
<path d="M264.094 339.95V314.579L289.465 339.95H285.048L267.206 322.108V339.95H264.094ZM292.307 305.783V323.99L274.1 305.783H269.702L295.419 331.518V305.783H292.307Z" fill="#3E3E41"/>
<path d="M249.959 466.687L232.021 448.749H267.897L264.786 451.86H239.55L252.168 464.478L249.959 466.687ZM245.753 422.572L258.621 435.439H232.886L229.774 438.551H266.15L247.962 420.363L245.753 422.572Z" fill="#3E3E41"/>
<path d="M222.495 459.197H197.125L222.495 433.826V438.244L204.653 456.085H222.495V459.197ZM188.329 430.984H206.536L188.329 449.191V453.589L214.064 427.873H188.329V430.984Z" fill="#3E3E41"/>
<path d="M197.778 473.332L179.84 491.27V455.394L182.951 458.505V483.741L195.569 471.123L197.778 473.332ZM153.663 477.538L166.531 464.67V490.405L169.642 493.517V457.142L151.454 475.329L153.663 477.538Z" fill="#3E3E41"/>
<path d="M190.288 500.796V526.166L164.918 500.796H169.335L187.177 518.638V500.796H190.288ZM162.075 534.962V516.756L180.282 534.962H184.68L158.964 509.227V534.962H162.075Z" fill="#3E3E41"/>
<path d="M204.404 525.513L222.342 543.451H186.466L189.577 540.34H214.813L202.195 527.722L204.404 525.513ZM208.61 569.628L195.742 556.76H221.477L224.589 553.649H188.214L206.401 571.837L208.61 569.628Z" fill="#3E3E41"/>
<path d="M231.887 533.022H257.258L231.887 558.393V553.976L249.729 536.134H231.887V533.022V533.022ZM266.054 561.235H247.847L266.054 543.029V538.63L240.318 564.347H266.054V561.235Z" fill="#3E3E41"/>
<path d="M256.605 518.887L274.543 500.949V536.825L271.431 533.714V508.478L258.813 521.096L256.605 518.887ZM300.72 514.681L287.852 527.549V501.814L284.741 498.702V535.077L302.928 516.89L300.72 514.681Z" fill="#3E3E41"/>
<path d="M264.094 491.423V466.053L289.465 491.423H285.048L267.206 473.582V491.423H264.094ZM292.307 457.238V475.445L274.1 457.238H269.702L295.419 482.973V457.238H292.307Z" fill="#3E3E41"/>
<path d="M249.959 618.141L232.021 600.203H267.897L264.786 603.314H239.55L252.168 615.932L249.959 618.141ZM245.753 574.045L258.621 586.913H232.886L229.774 590.024H266.15L247.962 571.837L245.753 574.045Z" fill="#3E3E41"/>
<path d="M222.495 610.651H197.125L222.495 585.281V589.698L204.653 607.54H222.495V610.651ZM188.329 582.438H206.536L188.329 600.645V605.043L214.064 579.327H188.329V582.438Z" fill="#3E3E41"/>
<path d="M197.778 624.786L179.84 642.724V606.848L182.951 609.959V635.196L195.569 622.577L197.778 624.786ZM153.663 628.992L166.531 616.124V641.86L169.642 644.971V608.596L151.454 626.783L153.663 628.992Z" fill="#3E3E41"/>
<path d="M190.288 652.25V677.621L164.918 652.25H169.335L187.177 670.092V652.25H190.288ZM162.075 686.417V668.21L180.282 686.417H184.68L158.964 660.681V686.417H162.075Z" fill="#3E3E41"/>
<path d="M204.404 676.987L222.342 694.925H186.466L189.577 691.813H214.813L202.195 679.195L204.404 676.987ZM208.61 721.082L195.742 708.215H221.477L224.589 705.103H188.214L206.401 723.291L208.61 721.082Z" fill="#3E3E41"/>
<path d="M231.887 684.477H257.258L231.887 709.847V705.43L249.729 687.588H231.887V684.477V684.477ZM266.054 712.69H247.847L266.054 694.483V690.085L240.318 715.801H266.054V712.69Z" fill="#3E3E41"/>
<path d="M256.605 670.342L274.543 652.404V688.279L271.431 685.168V659.932L258.813 672.55L256.605 670.342ZM300.72 666.136L287.852 679.003V653.268L284.741 650.157V686.532L302.928 668.344L300.72 666.136Z" fill="#3E3E41"/>
<path d="M264.094 642.878V617.507L289.465 642.878H285.048L267.206 625.036V642.878H264.094ZM292.307 608.711V626.918L274.1 608.711H269.702L295.419 634.447V608.711H292.307Z" fill="#3E3E41"/>
<path d="M249.959 769.615L232.021 751.677H267.897L264.786 754.788H239.55L252.168 767.406L249.959 769.615ZM245.753 725.5L258.621 738.368H232.886L229.774 741.479H266.15L247.962 723.291L245.753 725.5Z" fill="#3E3E41"/>
<path d="M222.495 762.125H197.125L222.495 736.754V741.172L204.653 759.014H222.495V762.125ZM188.329 733.893H206.536L188.329 752.1V756.498L214.064 730.781H188.329V733.893Z" fill="#3E3E41"/>
<path d="M197.778 776.241L179.84 794.179V758.303L182.951 761.414V786.65L195.569 774.032L197.778 776.241ZM153.663 780.447L166.531 767.579V793.315L169.642 796.426V760.051L151.454 778.238L153.663 780.447Z" fill="#3E3E41"/>
<path d="M190.288 803.724V829.094L164.918 803.724H169.335L187.177 821.566V803.724H190.288ZM162.075 837.89V819.684L180.282 837.89H184.68L158.964 812.155V837.89H162.075Z" fill="#3E3E41"/>
<path d="M204.404 828.441L222.342 846.379H186.466L189.577 843.268H214.813L202.195 830.65L204.404 828.441ZM208.61 872.556L195.742 859.689H221.477L224.589 856.577H188.214L206.401 874.765L208.61 872.556Z" fill="#3E3E41"/>
<path d="M231.887 835.931H257.258L231.887 861.302V856.885L249.729 839.043H231.887V835.931V835.931ZM266.054 864.144H247.847L266.054 845.937V841.539L240.318 867.256H266.054V864.144Z" fill="#3E3E41"/>
<path d="M256.605 821.796L274.543 803.858V839.734L271.431 836.623V811.387L258.813 824.005L256.605 821.796ZM300.72 817.59L287.852 830.458V804.723L284.741 801.611V837.987L302.928 819.799L300.72 817.59Z" fill="#3E3E41"/>
<path d="M264.094 794.332V768.962L289.465 794.332H285.048L267.206 776.491V794.332H264.094ZM292.307 760.166V778.373L274.1 760.166H269.702L295.419 785.901V760.166H292.307Z" fill="#3E3E41"/>
<path d="M249.959 921.069L232.021 903.132H267.897L264.786 906.243H239.55L252.168 918.861L249.959 921.069ZM245.753 876.954L258.621 889.822H232.886L229.774 892.933H266.15L247.962 874.746L245.753 876.954Z" fill="#3E3E41"/>
<path d="M222.495 913.579H197.125L222.495 888.209V892.626L204.653 910.468H222.495V913.579ZM188.329 885.366H206.536L188.329 903.573V907.971L214.064 882.255H188.329V885.366Z" fill="#3E3E41"/>
<path d="M197.778 927.695L179.84 945.633V909.757L182.951 912.869V938.105L195.569 925.487L197.778 927.695ZM153.663 931.921L166.531 919.053V944.788L169.642 947.899V911.524L151.454 929.712L153.663 931.921Z" fill="#3E3E41"/>
<path d="M190.288 955.178V980.549L164.918 955.178H169.335L187.177 973.02V955.178H190.288ZM162.075 989.345V971.138L180.282 989.345H184.68L158.964 963.61V989.345H162.075Z" fill="#3E3E41"/>
<path d="M204.404 979.896L222.342 997.834H186.466L189.577 994.722H214.813L202.195 982.104L204.404 979.896ZM208.61 1024.01L195.742 1011.14H221.477L224.589 1008.03H188.214L206.401 1026.22L208.61 1024.01Z" fill="#3E3E41"/>
<path d="M231.887 987.386H257.258L231.887 1012.76V1008.34L249.729 990.497H231.887V987.386V987.386ZM266.054 1015.6H247.847L266.054 997.392V992.994L240.318 1018.71H266.054V1015.6Z" fill="#3E3E41"/>
<path d="M256.605 973.27L274.543 955.332V991.208L271.431 988.097V962.861L258.813 975.479L256.605 973.27ZM300.72 969.045L287.852 981.912V956.177L284.741 953.066V989.441L302.928 971.253L300.72 969.045Z" fill="#3E3E41"/>
<path d="M264.094 945.787V920.417L289.465 945.787H285.048L267.206 927.945V945.787H264.094ZM292.307 911.62V929.827L274.1 911.62H269.702L295.419 937.356V911.62H292.307Z" fill="#3E3E41"/>
<path d="M98.505 12.3044L80.5671 -5.63351H116.443L113.332 -2.52223H88.0956L100.714 10.0958L98.505 12.3044ZM94.299 -31.7914L107.167 -18.9237H81.4313L78.32 -15.8124H114.695L96.5076 -34L94.299 -31.7914Z" fill="#3E3E41"/>
<path d="M71.0411 4.81427H45.6706L71.0411 -20.5562V-16.1389L53.1992 1.70298H71.0411V4.81427ZM36.8745 -23.3986H55.0813L36.8745 -5.19178V-0.793728L62.5906 -26.5099H36.8745V-23.3986Z" fill="#3E3E41"/>
<path d="M46.3044 18.9495L28.3665 36.8874V1.01156L31.4778 4.12285V29.3588L44.0958 16.7408L46.3044 18.9495ZM2.20863 23.1555L15.0763 10.2878V36.0231L18.1876 39.1344V2.75926L0 20.966L2.20863 23.1555Z" fill="#3E3E41"/>
<path d="M38.8142 46.4133V71.7837L13.4438 46.4133H17.8611L35.703 64.2552V46.4133H38.8142ZM10.6014 80.599V62.3923L28.8082 80.599H33.2062L7.49011 54.8637V80.599H10.6014Z" fill="#3E3E41"/>
<path d="M52.9496 71.15L70.8875 89.0879H35.0117L38.1229 85.9766H63.3589L50.7409 73.3586L52.9496 71.15ZM57.1556 115.265L44.2879 102.397H70.0232L73.1345 99.286H36.7594L54.9469 117.474L57.1556 115.265Z" fill="#3E3E41"/>
<path d="M80.4133 78.6401H105.784L80.4133 104.011V99.5933L98.2552 81.7514H80.4133V78.6401ZM114.599 106.853H96.3923L114.599 88.6461V84.2481L88.8637 109.964H114.599V106.853Z" fill="#3E3E41"/>
<path d="M105.15 64.5049L123.088 46.567V82.4428L119.977 79.3315V54.0955L107.359 66.7135L105.15 64.5049ZM149.265 60.2989L136.397 73.1665V47.4312L133.286 44.3199V80.6951L151.474 62.5075L149.265 60.2989Z" fill="#3E3E41"/>
<path d="M112.64 37.041V11.6706L138.011 37.041H133.593L115.751 19.1992V37.041H112.64ZM140.853 2.8745V21.0813L122.646 2.8745H118.248L143.964 28.6098V2.8745H140.853Z" fill="#3E3E41"/>
<path d="M98.505 163.778L80.5671 145.84H116.443L113.332 148.951H88.0956L100.714 161.569L98.505 163.778ZM94.299 119.663L107.167 132.531H81.4313L78.32 135.642H114.695L96.5076 117.454L94.299 119.663Z" fill="#3E3E41"/>
<path d="M71.0409 156.288H45.6705L71.0409 130.917V135.335L53.199 153.177H71.0409V156.288ZM36.8744 128.075H55.0812L36.8744 146.282V150.68L62.6097 124.964H36.8744V128.075Z" fill="#3E3E41"/>
<path d="M46.3044 170.404L28.3665 188.342V152.466L31.4778 155.577V180.813L44.0958 168.195L46.3044 170.404ZM2.20863 174.61L15.0763 161.742V187.478L18.1876 190.589V154.214L0 172.421L2.20863 174.61Z" fill="#3E3E41"/>
<path d="M38.8141 197.887V223.257L13.4437 197.887H17.8609L35.7028 215.729V197.887H38.8141V197.887ZM10.6013 232.053V213.847L28.8081 232.053H33.2061L7.48999 206.318V232.053H10.6013Z" fill="#3E3E41"/>
<path d="M52.9494 222.604L70.8873 240.542H35.0115L38.1228 237.431H63.3588L50.7408 224.813L52.9494 222.604ZM57.1554 266.719L44.2877 253.852H70.0231L73.1343 250.74H36.7592L54.9468 268.928L57.1554 266.719Z" fill="#3E3E41"/>
<path d="M80.4133 230.095H105.784L80.4133 255.465V251.048L98.2552 233.206H80.4133V230.095ZM114.599 258.307H96.3923L114.599 240.101V235.703L88.8637 261.419H114.599V258.307Z" fill="#3E3E41"/>
<path d="M105.15 215.959L123.088 198.021V233.897L119.977 230.786V205.55L107.359 218.168L105.15 215.959ZM149.265 211.753L136.397 224.621V198.886L133.286 195.774V232.15L151.474 213.962L149.265 211.753Z" fill="#3E3E41"/>
<path d="M112.64 188.496V163.125L138.011 188.496H133.593L115.751 170.654V188.496H112.64ZM140.853 154.329V172.536L122.646 154.329H118.248L143.964 180.064V154.329H140.853Z" fill="#3E3E41"/>
<path d="M98.505 315.232L80.5671 297.294H116.443L113.332 300.406H88.0956L100.714 313.024L98.505 315.232ZM94.299 271.117L107.167 283.985H81.4313L78.32 287.096H114.695L96.5076 268.909L94.299 271.117Z" fill="#3E3E41"/>
<path d="M71.0409 307.742H45.6705L71.0409 282.372V286.789L53.199 304.631H71.0409V307.742ZM36.8744 279.529H55.0812L36.8744 297.736V302.134L62.6097 276.418H36.8744V279.529Z" fill="#3E3E41"/>
<path d="M46.3044 321.858L28.3665 339.796V303.92L31.4778 307.032V332.268L44.0958 319.65L46.3044 321.858ZM2.20863 326.083L15.0763 313.216V338.951L18.1876 342.062V305.687L0 323.875L2.20863 326.083Z" fill="#3E3E41"/>
<path d="M38.8141 349.341V374.712L13.4437 349.341H17.8609L35.7028 367.183V349.341H38.8141ZM10.6013 383.508V365.301L28.8081 383.508H33.2061L7.48999 357.772V383.508H10.6013V383.508Z" fill="#3E3E41"/>
<path d="M52.9494 374.059L70.8873 391.997H35.0115L38.1228 388.885H63.3588L50.7408 376.267L52.9494 374.059ZM57.1554 418.174L44.2877 405.306H70.0231L73.1343 402.195H36.7592L54.9468 420.382L57.1554 418.174Z" fill="#3E3E41"/>
<path d="M80.4133 381.549H105.784L80.4133 406.919V402.502L98.2552 384.66H80.4133V381.549ZM114.599 409.762H96.3923L114.599 391.555V387.157L88.8637 412.873H114.599V409.762Z" fill="#3E3E41"/>
<path d="M105.15 367.433L123.088 349.495V385.371L119.977 382.259V357.023L107.359 369.641L105.15 367.433ZM149.265 363.208L136.397 376.075V350.34L133.286 347.229V383.604L151.474 365.416L149.265 363.208Z" fill="#3E3E41"/>
<path d="M112.64 339.95V314.579L138.011 339.95H133.593L115.751 322.108V339.95H112.64ZM140.853 305.783V323.99L122.646 305.783H118.248L143.964 331.518V305.783H140.853Z" fill="#3E3E41"/>
<path d="M98.505 466.687L80.5671 448.749H116.443L113.332 451.86H88.0956L100.714 464.478L98.505 466.687ZM94.299 422.572L107.167 435.439H81.4313L78.32 438.551H114.695L96.5076 420.363L94.299 422.572Z" fill="#3E3E41"/>
<path d="M71.0409 459.197H45.6705L71.0409 433.826V438.244L53.199 456.085H71.0409V459.197ZM36.8744 430.984H55.0812L36.8744 449.191V453.589L62.6097 427.873H36.8744V430.984Z" fill="#3E3E41"/>
<path d="M46.3044 473.332L28.3665 491.27V455.394L31.4778 458.505V483.741L44.0958 471.123L46.3044 473.332ZM2.20863 477.538L15.0763 464.67V490.405L18.1876 493.517V457.142L0 475.329L2.20863 477.538Z" fill="#3E3E41"/>
<path d="M38.8141 500.796V526.166L13.4437 500.796H17.8609L35.7028 518.638V500.796H38.8141ZM10.6013 534.962V516.756L28.8081 534.962H33.2061L7.48999 509.246V534.982H10.6013V534.962Z" fill="#3E3E41"/>
<path d="M52.9494 525.513L70.8873 543.451H35.0115L38.1228 540.34H63.3588L50.7408 527.722L52.9494 525.513ZM57.1554 569.628L44.2877 556.76H70.0231L73.1343 553.649H36.7592L54.9468 571.837L57.1554 569.628Z" fill="#3E3E41"/>
<path d="M80.4133 533.022H105.784L80.4133 558.393V553.976L98.2552 536.134H80.4133V533.022ZM114.599 561.235H96.3923L114.599 543.029V538.63L88.8637 564.347H114.599V561.235Z" fill="#3E3E41"/>
<path d="M105.15 518.887L123.088 500.949V536.825L119.977 533.714V508.478L107.359 521.096L105.15 518.887ZM149.265 514.681L136.397 527.549V501.814L133.286 498.702V535.077L151.474 516.89L149.265 514.681Z" fill="#3E3E41"/>
<path d="M112.64 491.423V466.053L138.011 491.423H133.593L115.751 473.582V491.423H112.64ZM140.853 457.238V475.445L122.646 457.238H118.248L143.964 482.973V457.238H140.853Z" fill="#3E3E41"/>
<path d="M98.505 618.141L80.5671 600.203H116.443L113.332 603.314H88.0956L100.714 615.932L98.505 618.141ZM94.299 574.045L107.167 586.913H81.4313L78.32 590.024H114.695L96.5076 571.837L94.299 574.045Z" fill="#3E3E41"/>
<path d="M71.0409 610.651H45.6705L71.0409 585.281V589.698L53.199 607.54H71.0409V610.651ZM36.8744 582.438H55.0812L36.8744 600.645V605.043L62.6097 579.327H36.8744V582.438Z" fill="#3E3E41"/>
<path d="M46.3044 624.786L28.3665 642.724V606.848L31.4778 609.959V635.196L44.0958 622.577L46.3044 624.786ZM2.20863 628.992L15.0763 616.124V641.86L18.1876 644.971V608.596L0 626.783L2.20863 628.992Z" fill="#3E3E41"/>
<path d="M38.8141 652.25V677.621L13.4437 652.25H17.8609L35.7028 670.092V652.25H38.8141ZM10.6013 686.417V668.21L28.8081 686.417H33.2061L7.48999 660.701V686.436H10.6013V686.417Z" fill="#3E3E41"/>
<path d="M52.9494 676.987L70.8873 694.925H35.0115L38.1228 691.813H63.3588L50.7408 679.195L52.9494 676.987ZM57.1554 721.082L44.2877 708.215H70.0231L73.1343 705.103H36.7592L54.9468 723.291L57.1554 721.082Z" fill="#3E3E41"/>
<path d="M80.4133 684.477H105.784L80.4133 709.847V705.43L98.2552 687.588H80.4133V684.477ZM114.599 712.69H96.3923L114.599 694.483V690.085L88.8637 715.801H114.599V712.69Z" fill="#3E3E41"/>
<path d="M105.15 670.342L123.088 652.404V688.279L119.977 685.168V659.932L107.359 672.55L105.15 670.342ZM149.265 666.136L136.397 679.003V653.268L133.286 650.157V686.532L151.474 668.344L149.265 666.136Z" fill="#3E3E41"/>
<path d="M112.64 642.878V617.507L138.011 642.878H133.593L115.751 625.036V642.878H112.64ZM140.853 608.711V626.918L122.646 608.711H118.248L143.964 634.447V608.711H140.853Z" fill="#3E3E41"/>
<path d="M98.505 769.615L80.5671 751.677H116.443L113.332 754.788H88.0956L100.714 767.406L98.505 769.615ZM94.299 725.5L107.167 738.368H81.4313L78.32 741.479H114.695L96.5076 723.291L94.299 725.5Z" fill="#3E3E41"/>
<path d="M71.0409 762.125H45.6705L71.0409 736.754V741.172L53.199 759.014H71.0409V762.125ZM36.8744 733.893H55.0812L36.8744 752.1V756.498L62.6097 730.781H36.8744V733.893Z" fill="#3E3E41"/>
<path d="M46.3044 776.241L28.3665 794.179V758.303L31.4778 761.414V786.65L44.0958 774.032L46.3044 776.241ZM2.20863 780.447L15.0763 767.579V793.315L18.1876 796.426V760.051L0 778.257L2.20863 780.447Z" fill="#3E3E41"/>
<path d="M38.8141 803.724V829.094L13.4437 803.724H17.8609L35.7028 821.566V803.724H38.8141ZM10.6013 837.89V819.684L28.8081 837.89H33.2061L7.48999 812.155V837.89H10.6013V837.89Z" fill="#3E3E41"/>
<path d="M52.9494 828.441L70.8873 846.379H35.0115L38.1228 843.268H63.3588L50.7408 830.65L52.9494 828.441ZM57.1554 872.556L44.2877 859.689H70.0231L73.1343 856.577H36.7592L54.9468 874.765L57.1554 872.556Z" fill="#3E3E41"/>
<path d="M80.4133 835.931H105.784L80.4133 861.302V856.885L98.2552 839.043H80.4133V835.931ZM114.599 864.144H96.3923L114.599 845.937V841.539L88.8637 867.256H114.599V864.144Z" fill="#3E3E41"/>
<path d="M105.15 821.796L123.088 803.858V839.734L119.977 836.623V811.387L107.359 824.005L105.15 821.796ZM149.265 817.59L136.397 830.458V804.723L133.286 801.611V837.987L151.474 819.799L149.265 817.59Z" fill="#3E3E41"/>
<path d="M112.64 794.332V768.962L138.011 794.332H133.593L115.751 776.491V794.332H112.64ZM140.853 760.166V778.373L122.646 760.166H118.248L143.964 785.901V760.166H140.853Z" fill="#3E3E41"/>
<path d="M98.505 921.069L80.5671 903.132H116.443L113.332 906.243H88.0956L100.714 918.861L98.505 921.069ZM94.299 876.954L107.167 889.822H81.4313L78.32 892.933H114.695L96.5076 874.746L94.299 876.954Z" fill="#3E3E41"/>
<path d="M71.0409 913.579H45.6705L71.0409 888.209V892.626L53.199 910.468H71.0409V913.579ZM36.8744 885.366H55.0812L36.8744 903.573V907.971L62.6097 882.255H36.8744V885.366Z" fill="#3E3E41"/>
<path d="M46.3044 927.695L28.3665 945.633V909.757L31.4778 912.869V938.105L44.0958 925.487L46.3044 927.695ZM2.20863 931.921L15.0763 919.053V944.788L18.1876 947.899V911.524L0 929.712L2.20863 931.921Z" fill="#3E3E41"/>
<path d="M38.8141 955.178V980.549L13.4437 955.178H17.8609L35.7028 973.02V955.178H38.8141ZM10.6013 989.345V971.138L28.8081 989.345H33.2061L7.48999 963.61V989.345H10.6013Z" fill="#3E3E41"/>
<path d="M52.9494 979.896L70.8873 997.834H35.0115L38.1228 994.722H63.3588L50.7408 982.104L52.9494 979.896ZM57.1554 1024.01L44.2877 1011.14H70.0231L73.1343 1008.03H36.7592L54.9468 1026.22L57.1554 1024.01Z" fill="#3E3E41"/>
<path d="M80.4133 987.386H105.784L80.4133 1012.76V1008.34L98.2552 990.497H80.4133V987.386ZM114.599 1015.6H96.3923L114.599 997.392V992.994L88.8637 1018.71H114.599V1015.6Z" fill="#3E3E41"/>
<path d="M105.15 973.27L123.088 955.332V991.208L119.977 988.097V962.861L107.359 975.479L105.15 973.27ZM149.265 969.045L136.397 981.912V956.177L133.286 953.066V989.441L151.474 971.253L149.265 969.045Z" fill="#3E3E41"/>
<path d="M112.64 945.787V920.417L138.011 945.787H133.593L115.751 927.945V945.787H112.64ZM140.853 911.62V929.827L122.646 911.62H118.248L143.964 937.356V911.62H140.853Z" fill="#3E3E41"/>
</svg>
